<?xml version="1.0" encoding="UTF-8"?>
<svg id="Ebene_1" xmlns="http://www.w3.org/2000/svg" version="1.1" viewBox="0 0 228.18 216.75">
  <!-- Generator: Adobe Illustrator 29.8.2, SVG Export Plug-In . SVG Version: 2.1.1 Build 3)  -->
  <defs>
    <style>
      .st0 {
        fill: #5a6380;
      }

      .st1 {
        fill: #f3c880;
      }

      .st2 {
        fill: #da7d6e;
      }

      .st3 {
        fill: #5a637f;
      }

      .st4 {
        fill: #9ac2aa;
      }
    </style>
  </defs>
  <g>
    <path class="st3" d="M30.59,142.18c-.96,2.74-1.19,5.04-1.56,8.3,3.71-.59,6.82-.96,10.89-.96,9.93,0,13.12,8.08,7.26,8.08s-12.75,2.67-18.82,4.89c.07,6.52-.37,14.23.89,17.71,2.45,6.67-7.93,3.56-9.41-3.33-2.3-10.67-1.56-25.35-.22-35.8-3.11-2.82-5.19-6.97-2.3-7.78,5.63-1.56,11.41-3.11,17.93-3.11,4.15,0,5.11-.37,9.63,1.11,6,1.93,8.67,10.08,5.63,9.56-6.82-1.11-13.64-1.19-19.94,1.33Z"/>
    <path class="st3" d="M73.05,182.19c-11.56-.3-16.38-9.86-17.42-11.49-2.3-3.48,1.85-8.67,5.71-3.41,1.56,2.22,4.37,4.67,9.63,4.82,4.59.15,14.38-10.67,12.97-15.27-10.52-.52-15.19,1.93-20.68,2.3-4,.22-9.19-4.82-10.3-8.23-1.93-6.15,15.86-21.49,23.64-22.75,7.49-1.19,9.34,3.26,13.12,7.56,3.41,3.93-2.74,5.85-5.34,3.85-1.04-.74-2.52-.89-3.33-1.78-3.19.82-10.67,6-13.78,9.93,5.63-.37,12.52-.82,17.49.52,3.93,1.11,8.89,4.3,9.71,7.04,2.96,9.78-8.82,27.2-21.42,26.9Z"/>
    <path class="st3" d="M122.41,180.27c-7.63,2-19.79-2.89-22.68-9.26-2.89-6.45-2.52-9.04-2.22-15.04.37-7.41,10.23-23.34,18.53-24.68,8.23-1.26,14.45.74,19.19,8.37,4.45,7.04,5.63,15.12,2.59,25.94-1.63,5.78-7.86,12.67-15.41,14.67ZM121.37,140.32c-4.15,1.7-11.19,11.26-13.27,17.42-2.74,8-.89,15.27,4.74,14.3,9.12-1.56,13.49-9.78,15.56-16.53,1.85-6,.52-18.31-7.04-15.19Z"/>
  </g>
  <g>
    <path class="st0" d="M198.42,117.38c2.27-.25,4.6-.05,6.7.84,2.26.95,4.57,2.75,4.77,6.14.41,6.78-5.34,8.83-9.24,8.83h-27.68c-1.53,0-3.06.03-4.59.15-1.72.13-4.62.08-4.91-1.79-.41-2.67,3.08-4.31,3.08-4.31,0,0,13.3-7.79,31.86-9.85Z"/>
    <path class="st2" d="M158.71,140.04c-.03-.99.77-1.83,1.76-1.81,1.28.03,3.32.71,6.3,3.37,4.74,4.24,13.4,11.69,16.29,14.16.49.42.99.83,1.51,1.22,1.9,1.45,7.97,6.6,5,11.31-1.75,2.77-4.57,2.77-6.96,2.08s-4.31-2.04-5.93-3.8c-3.82-4.16-13.38-14.73-15.66-18.82-1.87-3.34-2.26-6.16-2.31-7.72Z"/>
    <path class="st4" d="M120.98,117.16s3.29-5.75-6.16-13.14c-6.47-5.07-13.24-8.11-16.85-9.52-2.04-.8-4.22-1.15-6.4-.96-3.21.28-7.43,1.45-8.17,5.55-.5,2.73,0,5,.79,6.73,1.02,2.27,2.98,3.98,5.31,4.86,5.93,2.24,20.97,7.88,23.27,8.54,2.88.82,6.97.89,8.21-2.05Z"/>
    <path class="st1" d="M113.58,61.71s-6.61,3.86-4.93,12.73c1.23,6.5,7.95,19.63,11.05,26.17.98,2.08,1.81,4.21,2.56,6.38.93,2.67,2.76,6.39,5.7,5.85,4.52-.82,4.72-5.96,3.29-10.47-1.44-4.52-6.29-20.63-7.39-25.67-1.06-4.85-.33-10.47-3.76-13.97s-6.51-1.03-6.51-1.03Z"/>
    <path class="st4" d="M155.07,122.5s-4.63-4.52,3.64-10.47c8.27-5.96,15.83-18.57,15.83-18.57,0,0-5.51-4.23-5.3-8.95s2.18-5.55,5.3-4.93,11.74,2.49,13.39,7.31c1.64,4.81,1.64,11.38-4.72,18.57-6.37,7.19-18.69,19.91-22.18,19.81s-5.96-2.77-5.96-2.77Z"/>
    <path class="st2" d="M162.08,58.42c-2.49-1.38-5.43-1.83-8.21-1.22-3.28.71-7.51,2.82-10.3,8.62-5.13,10.68-5.34,27.64-5.34,27.64l-.82,12.2s-1.03,7.5,3.29,7.24c4.31-.26,4.31-1.83,5.96-6.28s10.16-30.53,12.06-31.77c0,0,3.07,3.75,4.75,4.54s5.78,2.49,6.81,0,1.64-4.34-1.44-7.42c-3.08-3.08-4.38-11.3-5.37-12.53-.28-.35-.79-.7-1.38-1.03Z"/>
    <circle class="st4" cx="196.47" cy="73.15" r="9.78"/>
    <circle class="st2" cx="163.98" cy="43.91" r="9.78"/>
  </g>
</svg>