<?xml version="1.0" encoding="UTF-8"?>
<svg id="Ebene_1" xmlns="http://www.w3.org/2000/svg" version="1.1" viewBox="0 0 1252.2 216.8">
  <!-- Generator: Adobe Illustrator 29.8.2, SVG Export Plug-In . SVG Version: 2.1.1 Build 3)  -->
  <defs>
    <style>
      .st0 {
        fill: #5a6380;
      }

      .st1 {
        fill: #f3c880;
      }

      .st2 {
        fill: #da7d6e;
      }

      .st3 {
        fill: #5a637f;
      }

      .st4 {
        fill: #9ac2aa;
      }
    </style>
  </defs>
  <g>
    <path class="st0" d="M917.18,107.71c2.5-.28,5.05-.06,7.37.92,2.48,1.04,5.02,3.02,5.25,6.74.45,7.45-5.87,9.71-10.16,9.71h-30.43c-1.68,0-3.37.03-5.04.16-1.89.15-5.08.08-5.4-1.97-.45-2.94,3.39-4.74,3.39-4.74,0,0,14.62-8.56,35.02-10.82Z"/>
    <path class="st2" d="M873.53,132.62c-.03-1.09.85-2.02,1.94-1.99,1.4.04,3.65.78,6.92,3.7,5.22,4.66,14.73,12.85,17.9,15.57.54.47,1.09.91,1.66,1.35,2.09,1.59,8.76,7.26,5.5,12.43-1.92,3.05-5.02,3.05-7.65,2.29s-4.74-2.24-6.52-4.18c-4.2-4.58-14.7-16.2-17.22-20.68-2.06-3.67-2.49-6.77-2.54-8.49Z"/>
    <path class="st4" d="M832.04,107.47s3.61-6.32-6.77-14.45c-7.12-5.57-14.55-8.91-18.53-10.47-2.24-.87-4.64-1.27-7.03-1.06-3.53.31-8.16,1.59-8.98,6.11-.55,3,0,5.49.87,7.4,1.12,2.49,3.28,4.37,5.84,5.34,6.52,2.46,23.05,8.67,25.58,9.39,3.16.9,7.66.98,9.03-2.26Z"/>
    <path class="st1" d="M823.91,46.51s-7.26,4.24-5.42,14c1.35,7.14,8.74,21.58,12.15,28.77,1.08,2.28,1.99,4.63,2.81,7.02,1.02,2.93,3.03,7.02,6.26,6.43,4.97-.9,5.19-6.55,3.61-11.51s-6.91-22.68-8.13-28.22-.36-11.51-4.13-15.35c-3.77-3.84-7.16-1.13-7.16-1.13Z"/>
    <path class="st4" d="M869.52,113.34s-5.09-4.97,4-11.51c9.09-6.55,17.4-20.42,17.4-20.42,0,0-6.05-4.64-5.83-9.84s2.4-6.1,5.83-5.42,12.91,2.74,14.72,8.03,1.81,12.51-5.19,20.42-20.55,21.89-24.38,21.78c-3.84-.11-6.55-3.04-6.55-3.04Z"/>
    <path class="st2" d="M877.22,42.9c-2.74-1.52-5.97-2.01-9.03-1.35-3.61.78-8.26,3.1-11.32,9.47-5.64,11.74-5.87,30.38-5.87,30.38l-.9,13.42s-1.13,8.24,3.61,7.96,4.74-2.01,6.55-6.9,11.17-33.57,13.26-34.92c0,0,3.37,4.12,5.22,5s6.36,2.74,7.49,0,1.81-4.77-1.58-8.16-4.82-12.42-5.91-13.77c-.31-.39-.87-.77-1.51-1.13Z"/>
    <circle class="st4" cx="915.03" cy="59.09" r="10.75"/>
    <circle class="st2" cx="879.31" cy="26.94" r="10.75"/>
  </g>
  <g>
    <path class="st3" d="M16.14,147.35c-1.06,3.01-1.3,5.54-1.71,9.12,4.07-.65,7.5-1.06,11.98-1.06,10.92,0,14.42,8.88,7.98,8.88s-14.01,2.93-20.69,5.38c.08,7.17-.41,15.64.98,19.47,2.69,7.33-8.72,3.91-10.35-3.67-2.53-11.73-1.71-27.86-.24-39.35-3.42-3.1-5.7-7.66-2.53-8.55,6.19-1.71,12.55-3.42,19.71-3.42,4.56,0,5.62-.41,10.59,1.22,6.6,2.12,9.53,11.08,6.19,10.51-7.5-1.22-14.99-1.3-21.91,1.47Z"/>
    <path class="st3" d="M69.67,156.63c-1.06.82-2.12-.33-3.83.08-4.15.98-12.46,5.95-14.58,22-.49,3.83.16,7.49.49,10.43.98,7.82-8.88.24-9.69-7.58-.9-8.63-1.63-25.17-.08-35.11,1.47-9.21,9.61-.82,11.73,4.15,1.47-2.61,3.01-4.15,4.32-4.72,2.77-1.14,8.31.9,11.81,7.74,1.06,1.96.16,2.69-.16,3.01Z"/>
    <path class="st3" d="M88.16,192.81c-5.78,1.06-14.26-.49-16.7-7.5-3.67-10.35-2.85-20.53,1.14-28.27,3.34-6.44,9.12-11.98,15.97-13.2,2.85-.49,8.72,1.38,11.73,5.05,4.73,5.78,2.12,18,.08,21.1-3.34,5.13-10.67,7.58-23.46,3.5-.24,1.38-.33,2.93.08,4.32.9,2.93,2.77,3.5,6.76,3.83,6.6.57,14.83-3.83,19.47-7.25,4.73-3.58,4.97,2.44,1.63,7.9-2.61,4.24-8.39,9.04-16.7,10.51ZM84.74,159.98c-1.22,1.22-2.44,2.61-3.58,4.24,3.99.98,7.82,1.22,10.35-.57,2.2-1.47,4.15-5.13,3.5-8.15-.73-3.18-8.8,3.1-10.26,4.48Z"/>
    <path class="st3" d="M120.99,189.63c1.22,7.01-8.88-.73-9.94-7.74-1.14-7.66-1.71-19.06-.41-28.19,1.39-10.18,12.63,4.32,11.57,7.25-2.28,6.19-2.77,19.47-1.22,28.68ZM121.89,144.01c-5.05.9-8.8-1.14-10.83-6.68-1.63-4.56.08-8.72,3.58-9.21,3.91-.49,5.78,2.53,7.66,6.03,1.63,3.18,3.1,9.29-.41,9.86Z"/>
    <path class="st3" d="M144.78,192.81c-5.78,1.06-14.26-.49-16.7-7.5-3.67-10.35-2.85-20.53,1.14-28.27,3.34-6.44,9.12-11.98,15.97-13.2,2.85-.49,8.72,1.38,11.73,5.05,4.73,5.78,2.12,18,.08,21.1-3.34,5.13-10.67,7.58-23.46,3.5-.24,1.38-.33,2.93.08,4.32.9,2.93,2.77,3.5,6.76,3.83,6.6.57,14.83-3.83,19.47-7.25,4.73-3.58,4.97,2.44,1.63,7.9-2.61,4.24-8.39,9.04-16.7,10.51ZM141.36,159.98c-1.22,1.22-2.44,2.61-3.58,4.24,3.99.98,7.82,1.22,10.35-.57,2.2-1.47,4.15-5.13,3.5-8.15-.73-3.18-8.8,3.1-10.26,4.48Z"/>
    <path class="st3" d="M204.82,191.34c-12.71-.33-18-10.83-19.15-12.63-2.53-3.83,2.04-9.53,6.27-3.75,1.71,2.44,4.81,5.13,10.59,5.3,5.05.16,15.8-11.73,14.26-16.78-11.57-.57-16.7,2.12-22.73,2.53-4.4.24-10.1-5.3-11.32-9.04-2.12-6.76,17.43-23.62,25.99-25.01,8.23-1.3,10.27,3.58,14.42,8.31,3.75,4.32-3.01,6.44-5.87,4.24-1.14-.81-2.77-.98-3.67-1.96-3.5.9-11.73,6.6-15.15,10.92,6.19-.41,13.77-.9,19.23.57,4.32,1.22,9.78,4.72,10.67,7.74,3.26,10.75-9.69,29.9-23.54,29.57Z"/>
    <path class="st3" d="M262.26,185.64c-5.62,3.1-8.64,5.21-14.91,5.78-5.05.41-9.53-2.36-13.12-8.06-3.5-5.7-3.91-11.24-3.18-16.21,1.14-7.82,10.18-21.43,16.78-22.89,4.48-.98,6.92,2.28,9.78,6.92,5.54,9.04,4.4,12.22,2.12,11.98-3.18-.41-4.48-5.78-7.66-5.54-3.42.33-6.92,4.73-8.8,7.5-1.71,2.53-6.27,8.23-3.91,13.61,1.63,3.83,14.58-.82,18.33-3.42,2.69-1.87,7.33-4.32,9.94-4.24,1.55.08,2.12,3.34,1.79,6.03-.33,2.44-5.7,7.74-7.17,8.55Z"/>
    <path class="st3" d="M309.19,180.75c.24,6.44,2.69,9.78.81,10.75-2.93,1.55-10.02-4.73-11-9.86-.49-2.69-1.14-12.55-.08-19.55-4.89,1.71-12.79,22.89-12.55,26.31.57,7.5-9.29.08-10.51-7.33-2.69-16.21.33-36.82,3.26-51.41,2.12-10.35,12.95,4.15,11.49,6.92-2.2,4.15-4.89,26.15-5.21,31.2,4.73-12.3,8.64-18.57,11.16-19.71,5.62-2.53,14.91,6.6,14.01,10.43-1.63,6.76-1.55,18.09-1.38,22.24Z"/>
    <path class="st3" d="M348.95,187.84c1.14,7.82-8.96-1.79-9.94-9.61l-.08-.24c-3.18,6.84-6.6,11.65-9.78,11.98-3.18.24-12.3-6.03-14.42-13.77-1.47-5.3-1.71-12.55-1.06-16.86.98-6.68,1.87-13.03,4.15-13.69,2.44-.73,11.49,7.17,8.06,14.5-1.79,3.83-2.53,14.83-.57,17.92,3.91-3.83,9.29-11.41,12.87-27.13.24-1.22.16-2.53.33-3.75,1.47-11,12.63,6.11,11.57,9.21-2.28,6.52-2.69,21.1-1.14,31.45Z"/>
    <path class="st3" d="M366.87,163.07c-.08,9.29-.16,17.68,1.71,25.5,1.79,7.41-9.21.16-10.92-7.25-3.83-16.13-1.63-37.64.08-52.14,1.22-10.26,13.52,5.87,12.3,8.64-1.87,4.24-3.1,21.02-3.18,25.25Z"/>
    <path class="st3" d="M391.88,192.81c-5.78,1.06-14.26-.49-16.7-7.5-3.67-10.35-2.85-20.53,1.14-28.27,3.34-6.44,9.12-11.98,15.97-13.2,2.85-.49,8.72,1.38,11.73,5.05,4.73,5.78,2.12,18,.08,21.1-3.34,5.13-10.67,7.58-23.46,3.5-.24,1.38-.33,2.93.08,4.32.9,2.93,2.77,3.5,6.76,3.83,6.6.57,14.83-3.83,19.47-7.25,4.73-3.58,4.97,2.44,1.63,7.9-2.61,4.24-8.39,9.04-16.7,10.51ZM388.46,159.98c-1.22,1.22-2.44,2.61-3.58,4.24,3.99.98,7.82,1.22,10.35-.57,2.2-1.47,4.15-5.13,3.5-8.15-.73-3.18-8.8,3.1-10.26,4.48Z"/>
    <path class="st3" d="M458.77,189.22c-8.39,2.2-21.75-3.18-24.93-10.18-3.18-7.09-2.77-9.94-2.44-16.54.41-8.15,11.24-25.66,20.37-27.13,9.04-1.38,15.89.81,21.1,9.21,4.89,7.74,6.19,16.62,2.85,28.51-1.79,6.35-8.64,13.93-16.94,16.13ZM457.63,145.31c-4.56,1.87-12.3,12.38-14.58,19.14-3.01,8.8-.98,16.78,5.21,15.72,10.02-1.71,14.83-10.75,17.11-18.17,2.04-6.6.57-20.12-7.74-16.7Z"/>
    <path class="st3" d="M512.21,184.66c-2.04,1.79-9.04,7.98-12.87,8.31-9.69.82-12.79-7.25-17.92-11.98-1.14-1.06-3.18-4.81-1.06-6.27.98-.65-.16-1.87,4.32,2.28,4.07,3.83,7.09,5.29,12.87,3.67,2.2-.65,11.32-7.09,9.21-9.29-1.3-1.38-12.46-.73-16.86.57-2.2.65-9.61-5.95-9.37-9.45.24-3.58,2.36-8.23,4.48-10.83,4.81-5.87,7.82-8.07,12.06-8.47,5.13-.41,9.04,6.92,12.3,11.41.33.49,1.22,2.77.49,3.18-2.93,1.55-6.68-3.83-9.94-3.58-1.71.16-8.07,4.48-7.5,5.95,7.82,1.14,16.13-.49,20.86,6.19,2.77,3.91,3.26,14.42-1.06,18.33Z"/>
    <path class="st3" d="M536,190.36c-5.87,2.77-13.12-1.87-14.58-9.94-1.14-6.44-1.22-13.28-.81-20.04-2.36-.41-6.03-2.44-7.33-4.16-1.22-1.63-2.85-5.21-.9-5.87,2.93-1.06,6.19-1.79,9.45-2.36.81-5.95,1.87-11.65,2.77-16.95,1.79-10.26,13.12,6.03,11.73,8.8-.57,1.22-1.22,3.75-1.71,6.84,3.99,0,11,.9,12.14,3.91.73,2.12-5.3,3.18-6.84,3.67-1.79.49-4.15,1.38-6.6,2.28-.57,4.81-.98,9.21-1.22,10.92-.41,3.01-.65,9.21.9,11.81,1.3,2.04,5.54,1.38,9.12-2.44.9-.98,3.75-5.54,4.89-1.71,1.22,4.24-7.01,13.36-11,15.23Z"/>
    <path class="st3" d="M569.73,141.97c-1.87,1.39-3.91,10.1-4.4,12.46,2.85-.24,14.83.16,15.23,3.83.24,2.28-5.62,3.1-7.25,3.58-3.18.98-6.11,2.69-9.12,4.16-.24,5.05-.24,10.18.24,15.23.24,2.53.73,5.05,1.06,7.58.16,1.22.41,2.61-.65,3.67-1.87,1.87-6.84-3.01-7.9-4.4s-1.96-2.77-2.36-4.48c-1.3-5.05-1.14-10.92-.98-16.13-1.87-.73-4.24-2.04-5.62-3.58-1.06-1.22-3.26-4.64-1.39-5.95,1.63-1.14,5.87-1.96,7.82-2.28.73-6.52,1.63-13.6,3.83-19.88,1.3-3.83,3.67-6.44,7.82-6.84,7.01-.65,11.57,7.17,14.42,12.38,1.06,1.87,2.77,4.97.33,6.52-3.18,2.04-7.98-8.07-11.08-5.87Z"/>
    <path class="st3" d="M612.99,156.63c-1.06.82-2.12-.33-3.83.08-4.15.98-12.46,5.95-14.58,22-.49,3.83.16,7.49.49,10.43.98,7.82-8.88.24-9.69-7.58-.9-8.63-1.63-25.17-.08-35.11,1.47-9.21,9.61-.82,11.73,4.15,1.47-2.61,3.01-4.15,4.32-4.72,2.77-1.14,8.31.9,11.81,7.74,1.06,1.96.16,2.69-.16,3.01Z"/>
    <path class="st3" d="M629.04,189.63c1.22,7.01-8.88-.73-9.94-7.74-1.14-7.66-1.71-19.06-.41-28.19,1.38-10.18,12.63,4.32,11.57,7.25-2.28,6.19-2.77,19.47-1.22,28.68ZM629.94,144.01c-5.05.9-8.8-1.14-10.83-6.68-1.63-4.56.08-8.72,3.58-9.21,3.91-.49,5.78,2.53,7.66,6.03,1.63,3.18,3.1,9.29-.41,9.86Z"/>
    <path class="st3" d="M652.83,192.81c-5.78,1.06-14.26-.49-16.7-7.5-3.67-10.35-2.85-20.53,1.14-28.27,3.34-6.44,9.12-11.98,15.97-13.2,2.85-.49,8.72,1.38,11.73,5.05,4.72,5.78,2.12,18,.08,21.1-3.34,5.13-10.67,7.58-23.46,3.5-.25,1.38-.33,2.93.08,4.32.9,2.93,2.77,3.5,6.76,3.83,6.6.57,14.83-3.83,19.47-7.25,4.72-3.58,4.97,2.44,1.63,7.9-2.61,4.24-8.39,9.04-16.7,10.51ZM649.41,159.98c-1.22,1.22-2.44,2.61-3.58,4.24,3.99.98,7.82,1.22,10.35-.57,2.2-1.47,4.16-5.13,3.5-8.15-.73-3.18-8.8,3.1-10.26,4.48Z"/>
    <path class="st3" d="M710.34,184.66c-2.04,1.79-9.04,7.98-12.87,8.31-9.69.82-12.79-7.25-17.92-11.98-1.14-1.06-3.18-4.81-1.06-6.27.98-.65-.16-1.87,4.32,2.28,4.07,3.83,7.09,5.29,12.87,3.67,2.2-.65,11.32-7.09,9.21-9.29-1.3-1.38-12.46-.73-16.86.57-2.2.65-9.61-5.95-9.37-9.45.25-3.58,2.36-8.23,4.48-10.83,4.81-5.87,7.82-8.07,12.06-8.47,5.13-.41,9.04,6.92,12.3,11.41.33.49,1.22,2.77.49,3.18-2.93,1.55-6.68-3.83-9.94-3.58-1.71.16-8.07,4.48-7.5,5.95,7.82,1.14,16.13-.49,20.86,6.19,2.77,3.91,3.26,14.42-1.06,18.33Z"/>
    <path class="st3" d="M729.07,163.07c-.08,9.29-.16,17.68,1.71,25.5,1.79,7.41-9.21.16-10.92-7.25-3.83-16.13-1.63-37.64.08-52.14,1.22-10.26,13.52,5.87,12.3,8.64-1.87,4.24-3.1,21.02-3.18,25.25Z"/>
    <path class="st3" d="M770.05,185.96c.08,1.06-.08,1.38-.49,1.96-1.96,3.18-5.62,1.71-8.31-1.71-3.1,2.69-7.33,5.46-12.38,5.87-3.67.33-9.86-4.07-11.49-8.64-1.71-4.64-2.12-6.92-1.47-13.36.73-7.74,7.98-12.71,15.15-9.69,2.61,1.06,5.3,2.12,7.82,3.26.49-2.77.98-5.62,1.3-8.55.49-4.64-8.96-4.4-11.65-2.04-2.61,2.28-6.84,4.07-7.98,2.28-1.14-1.96,1.22-5.54,3.67-8.15,3.1-3.34,7.9-5.13,13.03-4.89,4.16.16,13.77,8.72,13.52,13.12-.9,14.75-1.3,21.51-.73,30.55ZM747.73,171.46c-2.77,1.87-5.95,6.44-4.24,9.69,1.55,2.93,9.37-2.85,14.01-6.6.08-.57.08-1.14.08-1.71-3.1-1.22-7.9-2.77-9.86-1.38Z"/>
    <path class="st3" d="M808.91,178.71c.08,7.09,2.44,10.92.49,11.89-3.01,1.55-9.37-4.64-10.18-12.79-.33-2.93-.33-11.73.98-19.47-4.32,1.55-9.86,12.55-13.28,27.62-.24,1.06-.16,2.44,0,3.34,1.14,7.82-9.45-.08-10.51-7.82-1.14-8.64-1.71-22-.41-31.85,1.38-11.08,11.98,2.12,10.92,5.29-.73,2.2-1.22,5.7-1.38,9.78,3.01-9.12,6.76-15.8,8.55-17.43,2.53-2.2,3.58-4.07,9.29-.65,4.24,2.53,8.55,7.58,7.74,10.92-1.79,7.41-2.2,16.7-2.2,21.18Z"/>
    <path class="st3" d="M849.57,168.04c-.08,6.19.08,11.73,1.55,19.23,1.06,5.54-5.7,2.2-9.29-3.01-3.5,3.99-7.66,7.9-13.36,8.39-4.16.33-10.84-4.07-12.63-9.12-1.87-5.13-2.36-12.46.16-22.81,1.38-5.87,7.41-12.3,15.4-10.18,2.44.65,5.13,1.63,7.74,2.85.65-8.88,1.87-17.51,2.53-24.6.9-10.02,11.89,4.48,11.16,7.41-2.04,8.07-3.1,22.97-3.26,31.85ZM838.65,164.37c-3.1-1.22-6.35-2.28-8.8-.81-6.44,3.83-8.15,11.89-6.84,16.62.49,1.96,3.75,1.63,7.25-.16,2.04-.98,5.95-5.87,8.39-11.73,0-1.3-.08-2.61,0-3.91Z"/>
  </g>
</svg>