<?xml version="1.0" encoding="UTF-8"?>
<svg id="Ebene_1" xmlns="http://www.w3.org/2000/svg" version="1.1" viewBox="0 0 1252.2 216.8">
  <!-- Generator: Adobe Illustrator 29.8.2, SVG Export Plug-In . SVG Version: 2.1.1 Build 3)  -->
  <defs>
    <style>
      .st0 {
        fill: #5a6380;
      }

      .st1 {
        fill: #f3c880;
      }

      .st2 {
        fill: #5a637f;
        font-family: CCSignLanguage-Regular, CCSignLanguage;
      }

      .st3 {
        fill: #da7d6e;
      }

      .st4 {
        fill: #9ac2aa;
      }

      .st5 {
        font-size: 24.44px;
      }

      .st6 {
        font-size: 33.95px;
      }

      .st7 {
        font-size: 81.47px;
      }
    </style>
  </defs>
  <g>
    <path class="st0" d="M979.28,104.81c2.5-.28,5.05-.06,7.37.92,2.48,1.04,5.02,3.02,5.25,6.74.45,7.45-5.87,9.71-10.16,9.71h-30.43c-1.68,0-3.37.03-5.04.16-1.89.15-5.08.08-5.4-1.97-.45-2.94,3.39-4.74,3.39-4.74,0,0,14.62-8.56,35.02-10.82Z"/>
    <path class="st3" d="M935.62,129.72c-.03-1.09.85-2.02,1.94-1.99,1.4.04,3.65.78,6.92,3.7,5.22,4.66,14.73,12.85,17.9,15.57.54.47,1.09.91,1.66,1.35,2.09,1.59,8.76,7.26,5.5,12.43-1.92,3.05-5.02,3.05-7.65,2.29s-4.74-2.24-6.52-4.18c-4.2-4.58-14.7-16.2-17.22-20.68-2.06-3.67-2.49-6.77-2.54-8.49Z"/>
    <path class="st4" d="M894.14,104.57s3.61-6.32-6.77-14.45c-7.12-5.57-14.55-8.91-18.53-10.47-2.24-.87-4.64-1.27-7.03-1.06-3.53.31-8.16,1.59-8.98,6.11-.55,3,0,5.49.87,7.4,1.12,2.49,3.28,4.37,5.84,5.34,6.52,2.46,23.05,8.67,25.58,9.39,3.16.9,7.66.98,9.03-2.26Z"/>
    <path class="st1" d="M886.01,43.61s-7.26,4.24-5.42,14c1.35,7.14,8.74,21.58,12.15,28.77,1.08,2.28,1.99,4.63,2.81,7.02,1.02,2.93,3.03,7.02,6.26,6.43,4.97-.9,5.19-6.55,3.61-11.51s-6.91-22.68-8.13-28.22-.36-11.51-4.13-15.35c-3.77-3.84-7.16-1.13-7.16-1.13Z"/>
    <path class="st4" d="M931.61,110.44s-5.09-4.97,4-11.51c9.09-6.55,17.4-20.42,17.4-20.42,0,0-6.05-4.64-5.83-9.84s2.4-6.1,5.83-5.42,12.91,2.74,14.72,8.03,1.81,12.51-5.19,20.42-20.55,21.89-24.38,21.78c-3.84-.11-6.55-3.04-6.55-3.04Z"/>
    <path class="st3" d="M939.32,40c-2.74-1.52-5.97-2.01-9.03-1.35-3.61.78-8.26,3.1-11.32,9.47-5.64,11.74-5.87,30.38-5.87,30.38l-.9,13.42s-1.13,8.24,3.61,7.96,4.74-2.01,6.55-6.9,11.17-33.57,13.26-34.92c0,0,3.37,4.12,5.22,5s6.36,2.74,7.49,0,1.81-4.77-1.58-8.16-4.82-12.42-5.91-13.77c-.31-.39-.87-.77-1.51-1.13Z"/>
    <circle class="st4" cx="977.13" cy="56.19" r="10.75"/>
    <circle class="st3" cx="941.41" cy="24.04" r="10.75"/>
  </g>
  <text class="st2" transform="translate(59.5 187.47)"><tspan class="st7" x="0" y="0">Freie Sc</tspan><tspan class="st6" x="272.19" y="-17.13"> </tspan><tspan class="st7" x="280.1" y="0">hule Ostfrie</tspan><tspan class="st5" x="682.71" y="-20.56"> </tspan><tspan class="st7" x="688.41" y="0">sland</tspan></text>
</svg>