<?xml version="1.0" encoding="utf-8"?>
<!-- Generator: Adobe Illustrator 29.8.2, SVG Export Plug-In . SVG Version: 9.03 Build 0)  -->
<svg version="1.1" id="Ebene_1" xmlns="http://www.w3.org/2000/svg" xmlns:xlink="http://www.w3.org/1999/xlink" x="0px" y="0px"
	 viewBox="0 0 1366 768" style="enable-background:new 0 0 1366 768;" xml:space="preserve">
<style type="text/css">
	.st0{fill:#5A6380;}
	.st1{fill:#DA7D6E;}
	.st2{fill:#9AC2AA;}
	.st3{fill:#F3C880;}
	.st4{fill:none;}
	.st5{fill:#5A637F;}
</style>
<g>
	<path class="st0" d="M1139.04,335.48c2.36-0.26,4.78-0.05,6.97,0.87c2.35,0.99,4.75,2.86,4.97,6.38c0.43,7.05-5.55,9.18-9.61,9.18
		h-28.78c-1.59,0-3.18,0.03-4.77,0.16c-1.79,0.14-4.81,0.08-5.1-1.86c-0.43-2.78,3.2-4.49,3.2-4.49S1119.74,337.62,1139.04,335.48z"
		/>
	<path class="st1" d="M1097.74,359.05c-0.03-1.03,0.8-1.91,1.83-1.88c1.33,0.03,3.45,0.74,6.55,3.5
		c4.93,4.41,13.94,12.15,16.94,14.73c0.51,0.44,1.03,0.86,1.57,1.27c1.97,1.5,8.29,6.86,5.2,11.76c-1.82,2.88-4.75,2.88-7.24,2.16
		c-2.39-0.69-4.49-2.12-6.17-3.95c-3.97-4.33-13.91-15.32-16.29-19.57C1098.2,363.61,1097.79,360.68,1097.74,359.05z"/>
	<path class="st2" d="M1058.5,335.26c0,0,3.42-5.98-6.41-13.67c-6.73-5.27-13.77-8.43-17.53-9.9c-2.12-0.83-4.39-1.2-6.65-1
		c-3.33,0.29-7.72,1.5-8.5,5.78c-0.52,2.84,0.01,5.2,0.82,7c1.06,2.36,3.1,4.14,5.52,5.05c6.17,2.33,21.81,8.2,24.2,8.88
		C1052.94,338.25,1057.2,338.32,1058.5,335.26z"/>
	<path class="st3" d="M1050.81,277.59c0,0-6.87,4.01-5.13,13.24c1.28,6.76,8.27,20.41,11.49,27.22c1.02,2.16,1.88,4.38,2.66,6.64
		c0.96,2.77,2.87,6.64,5.93,6.09c4.7-0.85,4.91-6.19,3.42-10.89s-6.54-21.46-7.69-26.7c-1.1-5.05-0.34-10.89-3.91-14.52
		C1054.01,275.03,1050.81,277.59,1050.81,277.59z"/>
	<path class="st2" d="M1093.95,340.81c0,0-4.81-4.7,3.79-10.89c8.6-6.19,16.46-19.31,16.46-19.31s-5.73-4.39-5.51-9.31
		c0.21-4.91,2.27-5.77,5.51-5.13s12.21,2.59,13.92,7.6c1.71,5,1.71,11.84-4.91,19.31c-6.62,7.48-19.44,20.71-23.07,20.6
		C1096.51,343.59,1093.95,340.81,1093.95,340.81z"/>
	<path class="st1" d="M1101.24,274.17c-2.59-1.44-5.65-1.9-8.54-1.27c-3.41,0.74-7.81,2.93-10.71,8.96
		c-5.34,11.11-5.55,28.74-5.55,28.74l-0.85,12.69c0,0-1.07,7.8,3.42,7.53c4.49-0.27,4.49-1.9,6.19-6.53
		c1.71-4.63,10.56-31.75,12.54-33.04c0,0,3.19,3.9,4.94,4.73s6.02,2.59,7.08,0c1.07-2.59,1.71-4.51-1.5-7.72
		c-3.2-3.2-4.56-11.75-5.59-13.03C1102.38,274.88,1101.85,274.51,1101.24,274.17z"/>
	<circle class="st2" cx="1137.01" cy="289.49" r="10.17"/>
	<circle class="st1" cx="1103.22" cy="259.08" r="10.17"/>
</g>
<g>
	<rect x="268.91" y="352.12" class="st4" width="839.02" height="85.18"/>
	<path class="st5" d="M286.64,372.99c-1,2.85-1.23,5.24-1.62,8.63c3.85-0.62,7.09-1,11.33-1c10.33,0,13.64,8.4,7.55,8.4
		c-6.32,0-13.26,2.77-19.58,5.09c0.08,6.78-0.39,14.8,0.92,18.42c2.54,6.94-8.25,3.7-9.79-3.47c-2.39-11.1-1.62-26.36-0.23-37.23
		c-3.24-2.93-5.4-7.24-2.39-8.09c5.86-1.62,11.87-3.24,18.65-3.24c4.32,0,5.32-0.39,10.02,1.16c6.24,2,9.02,10.48,5.86,9.94
		C300.28,370.44,293.19,370.37,286.64,372.99z"/>
	<path class="st5" d="M337.27,381.77c-1,0.77-2-0.31-3.62,0.08c-3.93,0.92-11.79,5.63-13.8,20.81c-0.46,3.62,0.15,7.09,0.46,9.87
		c0.92,7.4-8.4,0.23-9.17-7.17c-0.85-8.17-1.54-23.81-0.08-33.22c1.39-8.71,9.09-0.77,11.1,3.93c1.39-2.47,2.85-3.93,4.08-4.47
		c2.62-1.08,7.86,0.85,11.18,7.32C338.43,380.77,337.58,381.46,337.27,381.77z"/>
	<path class="st5" d="M354.77,415.99c-5.47,1-13.49-0.46-15.8-7.09c-3.47-9.79-2.7-19.42,1.08-26.74
		c3.16-6.09,8.63-11.33,15.11-12.49c2.7-0.46,8.25,1.31,11.1,4.78c4.47,5.47,2,17.03,0.08,19.96c-3.16,4.86-10.1,7.17-22.2,3.31
		c-0.23,1.31-0.31,2.77,0.08,4.08c0.85,2.77,2.62,3.31,6.4,3.62c6.24,0.54,14.03-3.62,18.42-6.86c4.47-3.39,4.7,2.31,1.54,7.48
		C368.1,410.06,362.63,414.6,354.77,415.99z M351.53,384.93c-1.16,1.16-2.31,2.47-3.39,4.01c3.78,0.92,7.4,1.16,9.79-0.54
		c2.08-1.39,3.93-4.86,3.31-7.71C360.55,377.69,352.92,383.62,351.53,384.93z"/>
	<path class="st5" d="M385.83,412.99c1.16,6.63-8.4-0.69-9.4-7.32c-1.08-7.25-1.62-18.04-0.39-26.67
		c1.31-9.63,11.95,4.08,10.94,6.86C384.83,391.71,384.37,404.28,385.83,412.99z M386.68,369.83c-4.78,0.85-8.32-1.08-10.25-6.32
		c-1.54-4.32,0.08-8.25,3.39-8.71c3.7-0.46,5.47,2.39,7.24,5.7C388.6,363.51,389.99,369.29,386.68,369.83z"/>
	<path class="st5" d="M408.33,415.99c-5.47,1-13.49-0.46-15.8-7.09c-3.47-9.79-2.7-19.42,1.08-26.74
		c3.16-6.09,8.63-11.33,15.11-12.49c2.7-0.46,8.25,1.31,11.1,4.78c4.47,5.47,2,17.03,0.08,19.96c-3.16,4.86-10.1,7.17-22.2,3.31
		c-0.23,1.31-0.31,2.77,0.08,4.08c0.85,2.77,2.62,3.31,6.4,3.62c6.24,0.54,14.03-3.62,18.42-6.86c4.47-3.39,4.7,2.31,1.54,7.48
		C421.67,410.06,416.2,414.6,408.33,415.99z M405.1,384.93c-1.16,1.16-2.31,2.47-3.39,4.01c3.78,0.92,7.4,1.16,9.79-0.54
		c2.08-1.39,3.93-4.86,3.31-7.71C414.11,377.69,406.48,383.62,405.1,384.93z"/>
	<path class="st5" d="M465.14,414.6c-12.02-0.31-17.03-10.25-18.11-11.95c-2.39-3.62,1.93-9.02,5.93-3.54
		c1.62,2.31,4.55,4.86,10.02,5.01c4.78,0.15,14.95-11.1,13.49-15.88c-10.94-0.54-15.8,2-21.5,2.39c-4.16,0.23-9.56-5.01-10.71-8.55
		c-2-6.4,16.49-22.35,24.59-23.66c7.78-1.23,9.71,3.39,13.64,7.86c3.54,4.08-2.85,6.09-5.55,4.01c-1.08-0.77-2.62-0.92-3.47-1.85
		c-3.31,0.85-11.1,6.24-14.34,10.33c5.86-0.39,13.03-0.85,18.19,0.54c4.08,1.16,9.25,4.47,10.1,7.32
		C490.49,396.8,478.24,414.91,465.14,414.6z"/>
	<path class="st5" d="M519.47,409.21c-5.32,2.93-8.17,4.93-14.1,5.47c-4.78,0.39-9.02-2.24-12.41-7.63
		c-3.31-5.4-3.7-10.64-3.01-15.34c1.08-7.4,9.63-20.27,15.88-21.66c4.24-0.92,6.55,2.16,9.25,6.55c5.24,8.56,4.16,11.56,2,11.33
		c-3.01-0.38-4.24-5.47-7.24-5.24c-3.24,0.31-6.55,4.47-8.32,7.09c-1.62,2.39-5.93,7.78-3.7,12.87c1.54,3.62,13.8-0.77,17.34-3.24
		c2.54-1.77,6.94-4.08,9.4-4.01c1.46,0.08,2,3.16,1.7,5.7C525.94,403.43,520.86,408.44,519.47,409.21z"/>
	<path class="st5" d="M563.87,404.58c0.23,6.09,2.54,9.25,0.77,10.17c-2.77,1.46-9.48-4.47-10.4-9.33
		c-0.46-2.54-1.08-11.87-0.08-18.5c-4.62,1.62-12.1,21.66-11.87,24.89c0.54,7.09-8.79,0.08-9.94-6.94
		c-2.54-15.34,0.31-34.84,3.08-48.63c2-9.79,12.25,3.93,10.87,6.55c-2.08,3.93-4.62,24.74-4.93,29.52
		c4.47-11.64,8.17-17.57,10.56-18.65c5.32-2.39,14.1,6.24,13.26,9.87C563.64,389.94,563.72,400.65,563.87,404.58z"/>
	<path class="st5" d="M601.48,411.29c1.08,7.4-8.48-1.7-9.4-9.09l-0.08-0.23c-3.01,6.47-6.24,11.02-9.25,11.33
		c-3.01,0.23-11.64-5.7-13.64-13.02c-1.39-5.01-1.62-11.87-1-15.95c0.92-6.32,1.77-12.33,3.93-12.95
		c2.31-0.69,10.87,6.78,7.63,13.72c-1.7,3.62-2.39,14.03-0.54,16.96c3.7-3.62,8.79-10.79,12.18-25.67c0.23-1.16,0.15-2.39,0.31-3.55
		c1.39-10.4,11.95,5.78,10.94,8.71C600.4,387.71,600.02,401.5,601.48,411.29z"/>
	<path class="st5" d="M618.44,387.86c-0.08,8.79-0.15,16.72,1.62,24.12c1.7,7.01-8.71,0.15-10.33-6.86
		c-3.62-15.26-1.54-35.61,0.08-49.33c1.16-9.71,12.79,5.55,11.64,8.17C619.67,367.98,618.52,383.85,618.44,387.86z"/>
	<path class="st5" d="M642.1,415.99c-5.47,1-13.49-0.46-15.8-7.09c-3.47-9.79-2.7-19.42,1.08-26.74
		c3.16-6.09,8.63-11.33,15.11-12.49c2.7-0.46,8.25,1.31,11.1,4.78c4.47,5.47,2,17.03,0.08,19.96c-3.16,4.86-10.1,7.17-22.2,3.31
		c-0.23,1.31-0.31,2.77,0.08,4.08c0.85,2.77,2.62,3.31,6.4,3.62c6.24,0.54,14.03-3.62,18.42-6.86c4.47-3.39,4.7,2.31,1.54,7.48
		C655.43,410.06,649.96,414.6,642.1,415.99z M638.86,384.93c-1.16,1.16-2.31,2.47-3.39,4.01c3.78,0.92,7.4,1.16,9.79-0.54
		c2.08-1.39,3.93-4.86,3.31-7.71C647.88,377.69,640.25,383.62,638.86,384.93z"/>
	<path class="st5" d="M705.37,412.6c-7.94,2.08-20.58-3.01-23.58-9.63c-3.01-6.71-2.62-9.4-2.31-15.65
		c0.39-7.71,10.64-24.28,19.27-25.66c8.55-1.31,15.03,0.77,19.96,8.71c4.62,7.32,5.86,15.72,2.7,26.98
		C719.71,403.35,713.24,410.52,705.37,412.6z M704.29,371.06c-4.32,1.77-11.64,11.72-13.8,18.11c-2.85,8.32-0.92,15.88,4.93,14.88
		c9.48-1.62,14.03-10.17,16.18-17.19C713.54,380.62,712.16,367.82,704.29,371.06z"/>
	<path class="st5" d="M755.93,408.28c-1.93,1.7-8.55,7.55-12.18,7.86c-9.17,0.77-12.1-6.86-16.96-11.33c-1.08-1-3.01-4.55-1-5.93
		c0.92-0.62-0.15-1.77,4.08,2.16c3.85,3.62,6.71,5.01,12.18,3.47c2.08-0.62,10.71-6.71,8.71-8.79c-1.23-1.31-11.79-0.69-15.95,0.54
		c-2.08,0.62-9.09-5.63-8.86-8.94c0.23-3.39,2.24-7.78,4.24-10.25c4.55-5.55,7.4-7.63,11.41-8.02c4.86-0.39,8.55,6.55,11.64,10.79
		c0.31,0.46,1.16,2.62,0.46,3.01c-2.77,1.46-6.32-3.62-9.4-3.39c-1.62,0.15-7.63,4.24-7.09,5.63c7.4,1.08,15.26-0.46,19.73,5.86
		C759.55,394.64,760.02,404.58,755.93,408.28z"/>
	<path class="st5" d="M778.44,413.68c-5.55,2.62-12.41-1.77-13.8-9.4c-1.08-6.09-1.16-12.56-0.77-18.96
		c-2.24-0.39-5.7-2.31-6.94-3.93c-1.16-1.54-2.7-4.93-0.85-5.55c2.77-1,5.86-1.7,8.94-2.24c0.77-5.63,1.77-11.02,2.62-16.03
		c1.7-9.71,12.41,5.7,11.1,8.32c-0.54,1.16-1.16,3.55-1.62,6.47c3.78,0,10.41,0.85,11.48,3.7c0.69,2-5.01,3.01-6.47,3.47
		c-1.7,0.46-3.93,1.31-6.24,2.16c-0.54,4.55-0.93,8.71-1.16,10.33c-0.39,2.85-0.62,8.71,0.85,11.18c1.23,1.93,5.24,1.31,8.63-2.31
		c0.85-0.92,3.55-5.24,4.62-1.62C790,403.28,782.22,411.91,778.44,413.68z"/>
	<path class="st5" d="M810.35,367.9c-1.77,1.31-3.7,9.56-4.16,11.79c2.7-0.23,14.03,0.15,14.41,3.62c0.23,2.16-5.32,2.93-6.86,3.39
		c-3.01,0.92-5.78,2.54-8.63,3.93c-0.23,4.78-0.23,9.63,0.23,14.41c0.23,2.39,0.69,4.78,1,7.17c0.15,1.16,0.39,2.47-0.62,3.47
		c-1.77,1.77-6.47-2.85-7.48-4.16c-1-1.31-1.85-2.62-2.23-4.24c-1.23-4.78-1.08-10.33-0.92-15.26c-1.77-0.69-4.01-1.93-5.32-3.39
		c-1-1.16-3.08-4.39-1.31-5.63c1.54-1.08,5.55-1.85,7.4-2.16c0.69-6.17,1.54-12.87,3.62-18.81c1.23-3.62,3.47-6.09,7.4-6.47
		c6.63-0.62,10.94,6.78,13.64,11.71c1,1.77,2.62,4.7,0.31,6.17C817.82,375.38,813.28,365.82,810.35,367.9z"/>
	<path class="st5" d="M851.27,381.77c-1,0.77-2-0.31-3.62,0.08c-3.93,0.92-11.79,5.63-13.8,20.81c-0.46,3.62,0.15,7.09,0.46,9.87
		c0.92,7.4-8.4,0.23-9.17-7.17c-0.85-8.17-1.54-23.81-0.08-33.22c1.39-8.71,9.09-0.77,11.1,3.93c1.39-2.47,2.85-3.93,4.08-4.47
		c2.62-1.08,7.86,0.85,11.18,7.32C852.43,380.77,851.58,381.46,851.27,381.77z"/>
	<path class="st5" d="M866.46,412.99c1.16,6.63-8.4-0.69-9.4-7.32c-1.08-7.25-1.62-18.04-0.39-26.67
		c1.31-9.63,11.95,4.08,10.94,6.86C865.45,391.71,864.99,404.28,866.46,412.99z M867.3,369.83c-4.78,0.85-8.32-1.08-10.25-6.32
		c-1.54-4.32,0.08-8.25,3.39-8.71c3.7-0.46,5.47,2.39,7.25,5.7C869.23,363.51,870.62,369.29,867.3,369.83z"/>
	<path class="st5" d="M888.96,415.99c-5.47,1-13.49-0.46-15.8-7.09c-3.47-9.79-2.7-19.42,1.08-26.74
		c3.16-6.09,8.63-11.33,15.11-12.49c2.7-0.46,8.25,1.31,11.1,4.78c4.47,5.47,2,17.03,0.08,19.96c-3.16,4.86-10.1,7.17-22.2,3.31
		c-0.23,1.31-0.31,2.77,0.08,4.08c0.85,2.77,2.62,3.31,6.4,3.62c6.24,0.54,14.03-3.62,18.42-6.86c4.47-3.39,4.7,2.31,1.54,7.48
		C902.29,410.06,896.82,414.6,888.96,415.99z M885.72,384.93c-1.16,1.16-2.31,2.47-3.39,4.01c3.78,0.92,7.4,1.16,9.79-0.54
		c2.08-1.39,3.93-4.86,3.31-7.71C894.74,377.69,887.11,383.62,885.72,384.93z"/>
	<path class="st5" d="M943.37,408.28c-1.93,1.7-8.55,7.55-12.18,7.86c-9.17,0.77-12.1-6.86-16.96-11.33c-1.08-1-3.01-4.55-1-5.93
		c0.92-0.62-0.15-1.77,4.08,2.16c3.85,3.62,6.71,5.01,12.18,3.47c2.08-0.62,10.71-6.71,8.71-8.79c-1.23-1.31-11.79-0.69-15.95,0.54
		c-2.08,0.62-9.09-5.63-8.86-8.94c0.23-3.39,2.24-7.78,4.24-10.25c4.55-5.55,7.4-7.63,11.41-8.02c4.86-0.39,8.55,6.55,11.64,10.79
		c0.31,0.46,1.16,2.62,0.46,3.01c-2.77,1.46-6.32-3.62-9.4-3.39c-1.62,0.15-7.63,4.24-7.09,5.63c7.4,1.08,15.26-0.46,19.73,5.86
		C946.99,394.64,947.45,404.58,943.37,408.28z"/>
	<path class="st5" d="M961.09,387.86c-0.08,8.79-0.15,16.72,1.62,24.12c1.7,7.01-8.71,0.15-10.33-6.86
		c-3.62-15.26-1.54-35.61,0.08-49.33c1.16-9.71,12.79,5.55,11.64,8.17C962.33,367.98,961.17,383.85,961.09,387.86z"/>
	<path class="st5" d="M999.86,409.52c0.08,1-0.08,1.31-0.46,1.85c-1.85,3.01-5.32,1.62-7.86-1.62c-2.93,2.54-6.94,5.16-11.71,5.55
		c-3.47,0.31-9.33-3.85-10.87-8.17c-1.62-4.39-2-6.55-1.39-12.64c0.69-7.32,7.55-12.02,14.34-9.17c2.47,1,5.01,2,7.4,3.08
		c0.46-2.62,0.92-5.32,1.23-8.09c0.46-4.39-8.48-4.16-11.02-1.93c-2.47,2.16-6.47,3.85-7.55,2.16c-1.08-1.85,1.16-5.24,3.47-7.71
		c2.93-3.16,7.48-4.86,12.33-4.62c3.93,0.15,13.03,8.25,12.79,12.41C999.71,394.57,999.32,400.96,999.86,409.52z M978.74,395.8
		c-2.62,1.77-5.63,6.09-4.01,9.17c1.46,2.77,8.86-2.7,13.26-6.24c0.08-0.54,0.08-1.08,0.08-1.62
		C985.14,395.95,980.59,394.49,978.74,395.8z"/>
	<path class="st5" d="M1036.62,402.66c0.08,6.71,2.31,10.33,0.46,11.25c-2.85,1.46-8.86-4.39-9.63-12.1
		c-0.31-2.77-0.31-11.1,0.92-18.42c-4.08,1.46-9.33,11.87-12.56,26.13c-0.23,1-0.15,2.31,0,3.16c1.08,7.4-8.94-0.08-9.94-7.4
		c-1.08-8.17-1.62-20.81-0.38-30.14c1.31-10.48,11.33,2,10.33,5.01c-0.69,2.08-1.16,5.4-1.31,9.25c2.85-8.63,6.4-14.95,8.09-16.49
		c2.39-2.08,3.39-3.85,8.79-0.62c4.01,2.39,8.09,7.17,7.32,10.33C1037.01,389.63,1036.62,398.42,1036.62,402.66z"/>
	<path class="st5" d="M1075.08,392.56c-0.08,5.86,0.08,11.1,1.46,18.19c1,5.24-5.39,2.08-8.79-2.85c-3.31,3.78-7.24,7.48-12.64,7.94
		c-3.93,0.31-10.25-3.85-11.95-8.63c-1.77-4.86-2.24-11.79,0.15-21.58c1.31-5.55,7.01-11.64,14.57-9.63
		c2.31,0.62,4.86,1.54,7.32,2.7c0.62-8.4,1.77-16.57,2.39-23.28c0.85-9.48,11.25,4.24,10.56,7.01
		C1076.24,370.06,1075.24,384.16,1075.08,392.56z M1064.75,389.09c-2.93-1.16-6.01-2.16-8.32-0.77c-6.09,3.62-7.71,11.25-6.47,15.72
		c0.46,1.85,3.55,1.54,6.86-0.15c1.93-0.92,5.63-5.55,7.94-11.1C1064.75,391.56,1064.68,390.33,1064.75,389.09z"/>
</g>
<g>
	<path class="st5" d="M416.37,478.49v-0.16v3.78c-0.25,0.19-0.56,0.36-0.95,0.49c-0.38,0.14-0.81,0.21-1.27,0.21
		c-0.66,0-1.22-0.13-1.69-0.39c-0.47-0.26-0.89-0.73-1.27-1.42l-7.81-13.15c-0.41-0.74-0.86-1.55-1.36-2.44
		c-0.49-0.89-0.96-1.74-1.4-2.55c-0.44-0.81-0.78-1.47-1.03-1.99l-3.04,0.78v-3.58c0.22-0.22,0.53-0.4,0.92-0.53
		c0.4-0.14,0.83-0.21,1.3-0.21c0.66,0,1.22,0.13,1.69,0.39c0.47,0.26,0.89,0.73,1.27,1.42l7.85,13.15c0.44,0.74,0.9,1.56,1.38,2.45
		c0.48,0.89,0.93,1.74,1.34,2.55c0.41,0.81,0.74,1.47,0.99,1.99L416.37,478.49z M396.55,460.4l2.79-0.25c0.11,0.85,0.21,1.85,0.29,3
		c0.08,1.15,0.14,2.34,0.19,3.56c0.04,1.22,0.06,2.38,0.06,3.47v12.29c-0.14,0.06-0.35,0.12-0.64,0.18c-0.29,0.07-0.58,0.1-0.88,0.1
		c-0.6,0-1.05-0.12-1.36-0.35c-0.3-0.23-0.45-0.61-0.45-1.13V460.4z M416.37,479.72l-2.84,0.25c-0.27-2.3-0.43-4.65-0.47-7.05
		c-0.04-2.4-0.06-4.72-0.06-6.97v-8.3c0.16-0.06,0.38-0.12,0.66-0.19c0.27-0.07,0.58-0.1,0.9-0.1c0.6,0,1.05,0.12,1.36,0.35
		c0.3,0.23,0.45,0.61,0.45,1.13V479.72z"/>
	<path class="st5" d="M429.85,463.03c2.38,0,4.28,0.53,5.67,1.6c1.4,1.07,2.1,2.75,2.1,5.06v9.74c0,0.6-0.12,1.06-0.35,1.38
		c-0.23,0.31-0.58,0.61-1.05,0.88c-0.66,0.36-1.53,0.68-2.63,0.99c-1.1,0.3-2.33,0.45-3.7,0.45c-2.58,0-4.57-0.51-5.98-1.52
		c-1.41-1.01-2.12-2.48-2.12-4.4c0-1.78,0.6-3.14,1.79-4.09c1.19-0.95,2.84-1.51,4.95-1.71l5.84-0.58v-1.15c0-1.37-0.41-2.37-1.23-3
		c-0.82-0.63-1.93-0.95-3.33-0.95c-1.12,0-2.2,0.16-3.23,0.49c-1.03,0.33-1.94,0.7-2.73,1.11c-0.22-0.19-0.42-0.42-0.6-0.68
		c-0.18-0.26-0.27-0.53-0.27-0.8c0-0.71,0.4-1.26,1.19-1.64c0.74-0.38,1.6-0.68,2.57-0.88
		C427.72,463.14,428.75,463.03,429.85,463.03z M429.89,480.42c1.15,0,2.1-0.12,2.86-0.35s1.3-0.46,1.62-0.68v-5.96l-5.1,0.53
		c-1.43,0.11-2.48,0.43-3.17,0.94c-0.68,0.52-1.03,1.27-1.03,2.26c0,1.01,0.4,1.81,1.21,2.38
		C427.1,480.13,428.3,480.42,429.89,480.42z"/>
	<path class="st5" d="M446.95,472.94h-3.29v-14.88c0.14-0.06,0.35-0.12,0.64-0.19c0.29-0.07,0.6-0.1,0.92-0.1
		c0.58,0,1.01,0.12,1.29,0.35c0.29,0.23,0.43,0.61,0.43,1.13V472.94z M443.66,471.71h3.29v5.67c0,1.1,0.31,1.87,0.95,2.32
		c0.63,0.45,1.49,0.68,2.59,0.68c0.47,0,0.99-0.08,1.56-0.25c0.58-0.16,1.05-0.36,1.44-0.58c0.16,0.16,0.31,0.37,0.45,0.62
		c0.14,0.25,0.21,0.53,0.21,0.86c0,0.6-0.36,1.1-1.07,1.48c-0.71,0.38-1.7,0.58-2.96,0.58c-1.92,0-3.47-0.43-4.67-1.27
		c-1.19-0.85-1.79-2.26-1.79-4.23V471.71z M445.35,466.69v-2.71h8.34c0.08,0.11,0.16,0.29,0.25,0.53c0.08,0.25,0.12,0.51,0.12,0.78
		c0,0.44-0.11,0.78-0.33,1.03c-0.22,0.25-0.52,0.37-0.9,0.37H445.35z"/>
	<path class="st5" d="M461.99,474.01h-3.29v-10.36c0.14-0.06,0.35-0.12,0.64-0.18c0.29-0.07,0.6-0.1,0.93-0.1
		c0.58,0,1.01,0.12,1.29,0.35c0.29,0.23,0.43,0.62,0.43,1.17V474.01z M458.7,475.61v-3.74h3.29v3.58c0,1.75,0.47,3.02,1.4,3.78
		c0.93,0.77,2.22,1.15,3.86,1.15c1.1,0,2.03-0.12,2.79-0.35c0.77-0.23,1.37-0.47,1.81-0.72v-7.44h3.29v7.32
		c0,0.58-0.08,1.03-0.23,1.38s-0.51,0.68-1.09,1.01c-0.6,0.36-1.47,0.7-2.59,1.03c-1.12,0.33-2.47,0.49-4.03,0.49
		c-1.81,0-3.35-0.27-4.62-0.8c-1.27-0.53-2.24-1.36-2.9-2.47C459.03,478.71,458.7,477.31,458.7,475.61z M465.32,457.85
		c0,0.52-0.19,0.98-0.58,1.38c-0.38,0.4-0.88,0.6-1.48,0.6c-0.58,0-1.05-0.2-1.42-0.6c-0.37-0.4-0.56-0.86-0.56-1.38
		c0-0.55,0.19-1.01,0.56-1.4c0.37-0.38,0.84-0.58,1.42-0.58c0.6,0,1.1,0.19,1.48,0.58C465.13,456.84,465.32,457.31,465.32,457.85z
		 M472.43,457.85c0,0.52-0.2,0.98-0.6,1.38c-0.4,0.4-0.88,0.6-1.46,0.6c-0.55,0-1.02-0.2-1.42-0.6c-0.4-0.4-0.6-0.86-0.6-1.38
		c0-0.55,0.2-1.01,0.6-1.4c0.4-0.38,0.87-0.58,1.42-0.58c0.58,0,1.06,0.19,1.46,0.58C472.24,456.84,472.43,457.31,472.43,457.85z
		 M475.15,474.01h-3.29v-10.36c0.14-0.06,0.35-0.12,0.64-0.18c0.29-0.07,0.58-0.1,0.88-0.1c0.6,0,1.05,0.12,1.34,0.35
		c0.29,0.23,0.43,0.62,0.43,1.17V474.01z"/>
	<path class="st5" d="M484.6,467.1v6.5h-3.29v-6.25c0-0.63,0.12-1.13,0.35-1.5s0.62-0.73,1.17-1.09c0.71-0.47,1.69-0.87,2.92-1.21
		s2.6-0.51,4.11-0.51c2.19,0,3.29,0.55,3.29,1.64c0,0.27-0.04,0.53-0.12,0.76c-0.08,0.23-0.19,0.43-0.33,0.6
		c-0.27-0.06-0.63-0.11-1.07-0.17c-0.44-0.05-0.88-0.08-1.32-0.08c-1.26,0-2.37,0.13-3.33,0.39
		C486.03,466.44,485.23,466.75,484.6,467.1z M481.31,471.71l3.29,0.49v10.28c-0.14,0.06-0.34,0.12-0.62,0.18
		c-0.27,0.07-0.58,0.1-0.9,0.1c-0.58,0-1.01-0.12-1.32-0.35c-0.3-0.23-0.45-0.61-0.45-1.13V471.71z"/>
	<path class="st5" d="M500.63,473.76l-3.29-0.45v-17.39c0.14-0.06,0.35-0.12,0.64-0.19c0.29-0.07,0.58-0.1,0.88-0.1
		c0.6,0,1.05,0.12,1.34,0.35s0.43,0.61,0.43,1.13V473.76z M497.34,471.71l3.29,0.49v10.28c-0.14,0.06-0.34,0.12-0.62,0.18
		c-0.27,0.07-0.58,0.1-0.9,0.1c-0.58,0-1.01-0.12-1.32-0.35c-0.3-0.23-0.45-0.61-0.45-1.13V471.71z"/>
	<path class="st5" d="M506.92,457.57c0-0.57,0.21-1.06,0.62-1.46c0.41-0.4,0.92-0.6,1.52-0.6c0.63,0,1.14,0.2,1.52,0.6
		c0.38,0.4,0.58,0.88,0.58,1.46c0,0.58-0.19,1.06-0.58,1.46c-0.38,0.4-0.89,0.6-1.52,0.6c-0.6,0-1.11-0.2-1.52-0.6
		C507.13,458.63,506.92,458.14,506.92,457.57z M510.7,473.31h-3.29v-9.66c0.14-0.06,0.35-0.12,0.64-0.18c0.29-0.07,0.6-0.1,0.92-0.1
		c0.58,0,1.01,0.12,1.3,0.35c0.29,0.23,0.43,0.62,0.43,1.17V473.31z M507.41,471.71h3.29v10.77c-0.14,0.06-0.34,0.12-0.62,0.18
		c-0.27,0.07-0.58,0.1-0.9,0.1c-0.58,0-1.01-0.12-1.32-0.35c-0.3-0.23-0.45-0.61-0.45-1.13V471.71z"/>
	<path class="st5" d="M525.91,465.79c-1.86,0-3.41,0.63-4.65,1.89c-1.23,1.26-1.85,3.07-1.85,5.43c0,2.33,0.6,4.12,1.79,5.38
		c1.19,1.26,2.76,1.89,4.71,1.89c1.15,0,2.11-0.16,2.88-0.47c0.77-0.31,1.45-0.68,2.06-1.09c0.3,0.16,0.55,0.37,0.74,0.62
		c0.19,0.25,0.29,0.55,0.29,0.9c0,0.77-0.57,1.42-1.71,1.95c-1.14,0.53-2.56,0.8-4.25,0.8c-1.89,0-3.58-0.36-5.08-1.09
		c-1.49-0.73-2.67-1.83-3.51-3.31c-0.85-1.48-1.27-3.34-1.27-5.59c0-2.22,0.44-4.08,1.32-5.57c0.88-1.49,2.06-2.62,3.56-3.37
		c1.49-0.75,3.13-1.13,4.91-1.13c1.7,0,3.1,0.29,4.21,0.86c1.11,0.57,1.66,1.23,1.66,1.97c0,0.33-0.1,0.62-0.29,0.86
		c-0.19,0.25-0.44,0.44-0.74,0.57c-0.6-0.41-1.27-0.77-1.99-1.07C527.96,465.94,527.03,465.79,525.91,465.79z"/>
	<path class="st5" d="M540.13,473.31h-3.29v-17.39c0.14-0.06,0.35-0.12,0.64-0.19c0.29-0.07,0.6-0.1,0.93-0.1
		c0.58,0,1.01,0.12,1.29,0.35s0.43,0.61,0.43,1.13V473.31z M536.84,471.71h3.29v10.77c-0.14,0.06-0.34,0.12-0.62,0.18
		c-0.27,0.07-0.58,0.1-0.9,0.1c-0.58,0-1.01-0.12-1.32-0.35c-0.3-0.23-0.45-0.61-0.45-1.13V471.71z M553.25,474.38h-3.29v-3.78
		c0-1.64-0.46-2.86-1.38-3.66c-0.92-0.79-2.1-1.19-3.56-1.19c-1.07,0-2.06,0.21-2.98,0.62c-0.92,0.41-1.69,0.9-2.32,1.48l-0.62-2.67
		c0.66-0.47,1.53-0.94,2.61-1.42s2.34-0.72,3.76-0.72c2.27,0,4.14,0.62,5.59,1.85c1.45,1.23,2.18,3.11,2.18,5.63V474.38z
		 M549.96,471.75l3.29,0.04v10.69c-0.14,0.06-0.35,0.12-0.64,0.18c-0.29,0.07-0.58,0.1-0.88,0.1c-0.6,0-1.05-0.12-1.34-0.35
		c-0.29-0.23-0.43-0.61-0.43-1.13V471.75z"/>
	<path class="st5" d="M560.6,475.16l-0.16-2.59l12.41-1.69c-0.11-1.51-0.63-2.75-1.56-3.72c-0.93-0.97-2.22-1.46-3.86-1.46
		c-1.7,0-3.1,0.61-4.21,1.83c-1.11,1.22-1.66,2.97-1.66,5.24v0.9c0.19,2.19,0.91,3.86,2.16,5c1.25,1.14,2.95,1.71,5.12,1.71
		c1.15,0,2.19-0.19,3.12-0.58c0.93-0.38,1.67-0.8,2.22-1.23c0.3,0.19,0.54,0.42,0.72,0.68c0.18,0.26,0.27,0.56,0.27,0.88
		c0,0.52-0.29,1.01-0.88,1.46c-0.59,0.45-1.37,0.82-2.34,1.09c-0.97,0.27-2.06,0.41-3.27,0.41c-2.11,0-3.94-0.38-5.49-1.15
		c-1.55-0.77-2.74-1.91-3.58-3.43c-0.84-1.52-1.25-3.38-1.25-5.57c0-1.56,0.23-2.95,0.68-4.17c0.45-1.22,1.08-2.25,1.89-3.1
		c0.81-0.85,1.77-1.5,2.9-1.95c1.12-0.45,2.34-0.68,3.66-0.68c1.67,0,3.14,0.36,4.42,1.07c1.27,0.71,2.27,1.71,3,2.98
		c0.73,1.27,1.09,2.73,1.09,4.38c0,0.6-0.14,1.03-0.41,1.29c-0.27,0.26-0.66,0.42-1.15,0.47L560.6,475.16z"/>
	<path class="st5" d="M594.39,477.5c0,1.75-0.64,3.12-1.93,4.11c-1.29,0.99-3.15,1.48-5.59,1.48c-2.08,0-3.78-0.32-5.1-0.97
		c-1.32-0.64-1.97-1.35-1.97-2.12c0-0.33,0.09-0.65,0.27-0.97c0.18-0.31,0.45-0.57,0.8-0.76c0.74,0.52,1.6,1,2.59,1.44
		c0.99,0.44,2.11,0.66,3.37,0.66c2.85,0,4.28-0.96,4.28-2.88c0-0.8-0.24-1.45-0.72-1.95c-0.48-0.51-1.19-0.87-2.12-1.09l-3.41-0.9
		c-1.67-0.41-2.89-1.05-3.66-1.91c-0.77-0.86-1.15-1.94-1.15-3.23c0-1.45,0.59-2.71,1.77-3.78c1.18-1.07,2.97-1.6,5.38-1.6
		c1.29,0,2.41,0.13,3.37,0.39s1.71,0.6,2.24,1.03c0.53,0.43,0.8,0.88,0.8,1.38c0,0.36-0.09,0.67-0.27,0.94
		c-0.18,0.27-0.42,0.48-0.72,0.62c-0.33-0.22-0.75-0.46-1.25-0.72c-0.51-0.26-1.1-0.48-1.79-0.66s-1.44-0.27-2.26-0.27
		c-1.21,0-2.18,0.23-2.92,0.7c-0.74,0.47-1.11,1.12-1.11,1.97c0,0.6,0.21,1.13,0.64,1.58c0.43,0.45,1.1,0.79,2.03,1.01l2.84,0.7
		c1.86,0.44,3.26,1.13,4.19,2.08C593.93,474.73,594.39,475.97,594.39,477.5z"/>
	<path class="st5" d="M615.64,470.43h-3.37v-12.78c0.14-0.06,0.35-0.12,0.64-0.19c0.29-0.07,0.6-0.1,0.92-0.1
		c0.6,0,1.05,0.12,1.36,0.35c0.3,0.23,0.45,0.62,0.45,1.17V470.43z M612.27,467.97h3.37v14.26l-1.56,0.33
		c-0.52,0-0.95-0.17-1.29-0.51c-0.34-0.34-0.51-0.77-0.51-1.3V467.97z M614.08,482.56v-2.88h13.36c0.14,0.11,0.25,0.29,0.33,0.53
		c0.08,0.25,0.12,0.52,0.12,0.82c0,0.47-0.12,0.84-0.37,1.11c-0.25,0.27-0.58,0.41-0.99,0.41H614.08z"/>
	<path class="st5" d="M633.07,475.16l-0.16-2.59l12.41-1.69c-0.11-1.51-0.63-2.75-1.56-3.72c-0.93-0.97-2.22-1.46-3.86-1.46
		c-1.7,0-3.1,0.61-4.21,1.83c-1.11,1.22-1.66,2.97-1.66,5.24v0.9c0.19,2.19,0.91,3.86,2.16,5c1.25,1.14,2.95,1.71,5.12,1.71
		c1.15,0,2.19-0.19,3.12-0.58c0.93-0.38,1.67-0.8,2.22-1.23c0.3,0.19,0.54,0.42,0.72,0.68c0.18,0.26,0.27,0.56,0.27,0.88
		c0,0.52-0.29,1.01-0.88,1.46c-0.59,0.45-1.37,0.82-2.34,1.09c-0.97,0.27-2.06,0.41-3.27,0.41c-2.11,0-3.94-0.38-5.49-1.15
		c-1.55-0.77-2.74-1.91-3.58-3.43c-0.84-1.52-1.25-3.38-1.25-5.57c0-1.56,0.23-2.95,0.68-4.17c0.45-1.22,1.08-2.25,1.89-3.1
		c0.81-0.85,1.78-1.5,2.9-1.95c1.12-0.45,2.34-0.68,3.66-0.68c1.67,0,3.14,0.36,4.42,1.07c1.27,0.71,2.27,1.71,3,2.98
		c0.73,1.27,1.09,2.73,1.09,4.38c0,0.6-0.14,1.03-0.41,1.29c-0.27,0.26-0.66,0.42-1.15,0.47L633.07,475.16z"/>
	<path class="st5" d="M656.5,467.1v6.5h-3.29v-6.25c0-0.63,0.12-1.13,0.35-1.5c0.23-0.37,0.62-0.73,1.17-1.09
		c0.71-0.47,1.69-0.87,2.92-1.21s2.6-0.51,4.11-0.51c2.19,0,3.29,0.55,3.29,1.64c0,0.27-0.04,0.53-0.12,0.76
		c-0.08,0.23-0.19,0.43-0.33,0.6c-0.27-0.06-0.63-0.11-1.07-0.17c-0.44-0.05-0.88-0.08-1.32-0.08c-1.26,0-2.37,0.13-3.33,0.39
		C657.93,466.44,657.13,466.75,656.5,467.1z M653.21,471.71l3.29,0.49v10.28c-0.14,0.06-0.34,0.12-0.62,0.18
		c-0.27,0.07-0.58,0.1-0.9,0.1c-0.58,0-1.01-0.12-1.32-0.35c-0.3-0.23-0.45-0.61-0.45-1.13V471.71z"/>
	<path class="st5" d="M685.15,470.02v4.19h-3.29v-4.03c0-1.53-0.43-2.66-1.29-3.37c-0.86-0.71-2.02-1.07-3.47-1.07
		c-1.1,0-2.07,0.14-2.92,0.41c-0.85,0.27-1.58,0.59-2.18,0.94v7.11h-3.29v-6.95c0-0.58,0.12-1.05,0.35-1.42
		c0.23-0.37,0.64-0.73,1.21-1.09c0.71-0.41,1.66-0.8,2.84-1.17c1.18-0.37,2.51-0.56,3.99-0.56c2.49,0,4.46,0.57,5.9,1.71
		C684.43,465.88,685.15,467.64,685.15,470.02z M668.71,471.95H672v10.52c-0.14,0.06-0.34,0.12-0.62,0.18
		c-0.27,0.07-0.57,0.1-0.9,0.1c-0.57,0-1.01-0.12-1.31-0.35c-0.3-0.23-0.45-0.61-0.45-1.13V471.95z M681.86,471.95h3.29v10.52
		c-0.14,0.06-0.35,0.12-0.64,0.18c-0.29,0.07-0.58,0.1-0.88,0.1c-0.6,0-1.05-0.12-1.34-0.35c-0.29-0.23-0.43-0.61-0.43-1.13V471.95z
		"/>
	<path class="st5" d="M692.51,475.16l-0.16-2.59l12.41-1.69c-0.11-1.51-0.63-2.75-1.56-3.72c-0.93-0.97-2.22-1.46-3.86-1.46
		c-1.7,0-3.1,0.61-4.21,1.83c-1.11,1.22-1.66,2.97-1.66,5.24v0.9c0.19,2.19,0.91,3.86,2.16,5c1.25,1.14,2.95,1.71,5.12,1.71
		c1.15,0,2.19-0.19,3.12-0.58c0.93-0.38,1.67-0.8,2.22-1.23c0.3,0.19,0.54,0.42,0.72,0.68c0.18,0.26,0.27,0.56,0.27,0.88
		c0,0.52-0.29,1.01-0.88,1.46c-0.59,0.45-1.37,0.82-2.34,1.09c-0.97,0.27-2.06,0.41-3.27,0.41c-2.11,0-3.94-0.38-5.49-1.15
		c-1.55-0.77-2.74-1.91-3.58-3.43c-0.84-1.52-1.25-3.38-1.25-5.57c0-1.56,0.23-2.95,0.68-4.17c0.45-1.22,1.08-2.25,1.89-3.1
		c0.81-0.85,1.78-1.5,2.9-1.95c1.12-0.45,2.34-0.68,3.66-0.68c1.67,0,3.14,0.36,4.42,1.07c1.27,0.71,2.27,1.71,3,2.98
		c0.73,1.27,1.09,2.73,1.09,4.38c0,0.6-0.14,1.03-0.41,1.29c-0.27,0.26-0.66,0.42-1.15,0.47L692.51,475.16z"/>
	<path class="st5" d="M729.09,470.02v4.19h-3.29v-4.03c0-1.53-0.43-2.66-1.3-3.37c-0.86-0.71-2.02-1.07-3.47-1.07
		c-1.1,0-2.07,0.14-2.92,0.41c-0.85,0.27-1.58,0.59-2.18,0.94v7.11h-3.29v-6.95c0-0.58,0.12-1.05,0.35-1.42
		c0.23-0.37,0.64-0.73,1.21-1.09c0.71-0.41,1.66-0.8,2.84-1.17c1.18-0.37,2.51-0.56,3.99-0.56c2.49,0,4.46,0.57,5.9,1.71
		C728.38,465.88,729.09,467.64,729.09,470.02z M712.65,471.95h3.29v10.52c-0.14,0.06-0.34,0.12-0.62,0.18
		c-0.27,0.07-0.58,0.1-0.9,0.1c-0.58,0-1.01-0.12-1.32-0.35c-0.3-0.23-0.45-0.61-0.45-1.13V471.95z M725.81,471.95h3.29v10.52
		c-0.14,0.06-0.35,0.12-0.64,0.18c-0.29,0.07-0.58,0.1-0.88,0.1c-0.6,0-1.05-0.12-1.34-0.35c-0.29-0.23-0.43-0.61-0.43-1.13V471.95z
		"/>
	<path class="st5" d="M747.3,457.57c0-0.57,0.21-1.06,0.62-1.46c0.41-0.4,0.92-0.6,1.52-0.6c0.63,0,1.14,0.2,1.52,0.6
		c0.38,0.4,0.58,0.88,0.58,1.46c0,0.58-0.19,1.06-0.58,1.46c-0.38,0.4-0.89,0.6-1.52,0.6c-0.6,0-1.11-0.2-1.52-0.6
		C747.51,458.63,747.3,458.14,747.3,457.57z M751.09,473.31h-3.29v-9.66c0.14-0.06,0.35-0.12,0.64-0.18c0.29-0.07,0.6-0.1,0.92-0.1
		c0.58,0,1.01,0.12,1.29,0.35c0.29,0.23,0.43,0.62,0.43,1.17V473.31z M747.8,471.71h3.29v10.77c-0.14,0.06-0.34,0.12-0.62,0.18
		c-0.27,0.07-0.58,0.1-0.9,0.1c-0.58,0-1.01-0.12-1.32-0.35c-0.3-0.23-0.45-0.61-0.45-1.13V471.71z"/>
	<path class="st5" d="M773.94,470.02v4.19h-3.29v-4.03c0-1.53-0.43-2.66-1.3-3.37c-0.86-0.71-2.02-1.07-3.47-1.07
		c-1.1,0-2.07,0.14-2.92,0.41s-1.58,0.59-2.18,0.94v7.11h-3.29v-6.95c0-0.58,0.12-1.05,0.35-1.42c0.23-0.37,0.64-0.73,1.21-1.09
		c0.71-0.41,1.66-0.8,2.84-1.17s2.51-0.56,3.99-0.56c2.49,0,4.46,0.57,5.9,1.71C773.22,465.88,773.94,467.64,773.94,470.02z
		 M757.5,471.95h3.29v10.52c-0.14,0.06-0.34,0.12-0.62,0.18c-0.27,0.07-0.58,0.1-0.9,0.1c-0.58,0-1.01-0.12-1.32-0.35
		c-0.3-0.23-0.45-0.61-0.45-1.13V471.95z M770.65,471.95h3.29v10.52c-0.14,0.06-0.35,0.12-0.64,0.18c-0.29,0.07-0.58,0.1-0.88,0.1
		c-0.6,0-1.05-0.12-1.34-0.35c-0.29-0.23-0.43-0.61-0.43-1.13V471.95z"/>
	<path class="st5" d="M812.78,470.76v8.92c0,0.49-0.14,0.91-0.43,1.25s-0.72,0.65-1.29,0.92c-0.69,0.36-1.63,0.65-2.84,0.88
		c-1.21,0.23-2.43,0.35-3.66,0.35c-2.55,0-4.8-0.47-6.76-1.4c-1.96-0.93-3.49-2.36-4.58-4.28c-1.1-1.92-1.64-4.36-1.64-7.32
		c0-2.93,0.57-5.37,1.71-7.3c1.14-1.93,2.65-3.38,4.54-4.34c1.89-0.96,3.96-1.44,6.21-1.44c1.56,0,2.93,0.16,4.11,0.49
		c1.18,0.33,2.1,0.74,2.75,1.23c0.66,0.49,0.99,1,0.99,1.52c0,0.36-0.11,0.68-0.33,0.97c-0.22,0.29-0.48,0.5-0.78,0.64
		c-0.74-0.49-1.62-0.95-2.63-1.38c-1.01-0.42-2.32-0.64-3.91-0.64c-1.73,0-3.29,0.38-4.69,1.15c-1.4,0.77-2.5,1.91-3.31,3.43
		c-0.81,1.52-1.21,3.41-1.21,5.65c0,2.36,0.42,4.28,1.25,5.77c0.84,1.49,1.98,2.6,3.43,3.31c1.45,0.71,3.08,1.07,4.89,1.07
		c0.99,0,1.92-0.08,2.79-0.25c0.88-0.16,1.56-0.37,2.06-0.62v-7.56h-6.21c-0.08-0.14-0.16-0.32-0.25-0.56
		c-0.08-0.23-0.12-0.49-0.12-0.76c0-0.47,0.11-0.83,0.33-1.09c0.22-0.26,0.53-0.39,0.95-0.39h6.86c0.49,0,0.91,0.16,1.25,0.47
		C812.61,469.82,812.78,470.24,812.78,470.76z"/>
	<path class="st5" d="M822.07,467.1v6.5h-3.29v-6.25c0-0.63,0.12-1.13,0.35-1.5c0.23-0.37,0.62-0.73,1.17-1.09
		c0.71-0.47,1.69-0.87,2.92-1.21c1.23-0.34,2.6-0.51,4.11-0.51c2.19,0,3.29,0.55,3.29,1.64c0,0.27-0.04,0.53-0.12,0.76
		c-0.08,0.23-0.19,0.43-0.33,0.6c-0.27-0.06-0.63-0.11-1.07-0.17c-0.44-0.05-0.88-0.08-1.32-0.08c-1.26,0-2.37,0.13-3.33,0.39
		C823.5,466.44,822.7,466.75,822.07,467.1z M818.79,471.71l3.29,0.49v10.28c-0.14,0.06-0.34,0.12-0.62,0.18
		c-0.27,0.07-0.58,0.1-0.9,0.1c-0.58,0-1.01-0.12-1.32-0.35c-0.3-0.23-0.45-0.61-0.45-1.13V471.71z"/>
	<path class="st5" d="M851.71,473.06c0,2.03-0.38,3.8-1.15,5.3c-0.77,1.51-1.85,2.67-3.25,3.49c-1.4,0.82-3.04,1.23-4.93,1.23
		c-1.89,0-3.54-0.41-4.95-1.23c-1.41-0.82-2.5-1.99-3.27-3.49c-0.77-1.51-1.15-3.27-1.15-5.3c0-2.06,0.39-3.83,1.17-5.32
		c0.78-1.49,1.88-2.65,3.29-3.47c1.41-0.82,3.05-1.23,4.91-1.23c1.86,0,3.49,0.41,4.89,1.23c1.4,0.82,2.49,1.98,3.27,3.47
		C851.32,469.23,851.71,471.01,851.71,473.06z M842.38,465.75c-1.84,0-3.3,0.65-4.38,1.95c-1.08,1.3-1.62,3.09-1.62,5.36
		c0,2.3,0.53,4.1,1.58,5.38c1.05,1.29,2.53,1.93,4.42,1.93c1.86,0,3.32-0.65,4.38-1.95c1.05-1.3,1.58-3.09,1.58-5.36
		s-0.53-4.06-1.58-5.36C845.7,466.4,844.24,465.75,842.38,465.75z"/>
	<path class="st5" d="M860.3,470.84h-3.29v-7.81c0-1.73,0.35-3.19,1.07-4.38c0.71-1.19,1.68-2.1,2.9-2.71
		c1.22-0.62,2.6-0.92,4.13-0.92c1.56,0,2.96,0.31,4.19,0.92c1.23,0.62,2.21,1.56,2.94,2.82s1.09,2.85,1.09,4.77
		c0,0.93-0.48,1.59-1.44,1.97l-1.81,0.7c-0.71,0.36-1.21,0.7-1.5,1.03c-0.29,0.33-0.43,0.78-0.43,1.36c0,0.55,0.16,1.02,0.49,1.42
		c0.33,0.4,0.93,0.87,1.81,1.42c1.15,0.66,2.12,1.28,2.9,1.87c0.78,0.59,1.37,1.23,1.77,1.93c0.4,0.7,0.6,1.56,0.6,2.57
		c0,1.84-0.63,3.21-1.89,4.11c-1.26,0.9-2.89,1.36-4.89,1.36c-1.59,0-2.83-0.25-3.72-0.74c-0.89-0.49-1.34-1.1-1.34-1.81
		c0-0.33,0.09-0.66,0.27-0.99c0.18-0.33,0.45-0.56,0.8-0.7c0.52,0.41,1.11,0.75,1.77,1.03c0.66,0.27,1.44,0.41,2.34,0.41
		c0.99,0,1.79-0.25,2.4-0.76c0.62-0.51,0.92-1.16,0.92-1.95c0-0.74-0.23-1.38-0.7-1.91c-0.47-0.53-1.38-1.17-2.75-1.91
		c-1.34-0.71-2.37-1.49-3.08-2.32c-0.71-0.84-1.07-1.86-1.07-3.06c0-1.12,0.29-2.05,0.88-2.79c0.59-0.74,1.46-1.36,2.61-1.85
		l1.77-0.74c0-1.53-0.46-2.81-1.38-3.82c-0.92-1.01-2.12-1.52-3.6-1.52c-1.26,0-2.37,0.41-3.33,1.23c-0.96,0.82-1.44,2.17-1.44,4.03
		V470.84z M857.01,467.27h3.29v15.37c-0.11,0.03-0.3,0.08-0.58,0.14c-0.27,0.07-0.56,0.1-0.86,0.1c-0.6,0-1.06-0.13-1.38-0.39
		c-0.32-0.26-0.47-0.64-0.47-1.13V467.27z"/>
	<path class="st5" d="M883.9,473.31h-3.29v-17.39c0.14-0.06,0.35-0.12,0.64-0.19c0.29-0.07,0.6-0.1,0.93-0.1
		c0.57,0,1.01,0.12,1.29,0.35c0.29,0.23,0.43,0.61,0.43,1.13V473.31z M880.61,471.71h3.29v10.77c-0.14,0.06-0.34,0.12-0.62,0.18
		c-0.27,0.07-0.57,0.1-0.9,0.1c-0.57,0-1.01-0.12-1.31-0.35c-0.3-0.23-0.45-0.61-0.45-1.13V471.71z M897.01,474.38h-3.29v-3.78
		c0-1.64-0.46-2.86-1.38-3.66c-0.92-0.79-2.1-1.19-3.56-1.19c-1.07,0-2.06,0.21-2.98,0.62c-0.92,0.41-1.69,0.9-2.32,1.48l-0.62-2.67
		c0.66-0.47,1.53-0.94,2.61-1.42c1.08-0.48,2.34-0.72,3.76-0.72c2.27,0,4.14,0.62,5.59,1.85c1.45,1.23,2.18,3.11,2.18,5.63V474.38z
		 M893.72,471.75l3.29,0.04v10.69c-0.14,0.06-0.35,0.12-0.64,0.18c-0.29,0.07-0.58,0.1-0.88,0.1c-0.6,0-1.05-0.12-1.34-0.35
		c-0.29-0.23-0.43-0.61-0.43-1.13V471.75z"/>
	<path class="st5" d="M904.37,475.16l-0.16-2.59l12.41-1.69c-0.11-1.51-0.63-2.75-1.56-3.72c-0.93-0.97-2.22-1.46-3.86-1.46
		c-1.7,0-3.1,0.61-4.21,1.83s-1.66,2.97-1.66,5.24v0.9c0.19,2.19,0.91,3.86,2.16,5c1.25,1.14,2.95,1.71,5.12,1.71
		c1.15,0,2.19-0.19,3.12-0.58c0.93-0.38,1.67-0.8,2.22-1.23c0.3,0.19,0.54,0.42,0.72,0.68c0.18,0.26,0.27,0.56,0.27,0.88
		c0,0.52-0.29,1.01-0.88,1.46c-0.59,0.45-1.37,0.82-2.34,1.09c-0.97,0.27-2.06,0.41-3.27,0.41c-2.11,0-3.94-0.38-5.49-1.15
		c-1.55-0.77-2.74-1.91-3.58-3.43c-0.84-1.52-1.25-3.38-1.25-5.57c0-1.56,0.23-2.95,0.68-4.17c0.45-1.22,1.08-2.25,1.89-3.1
		c0.81-0.85,1.77-1.5,2.9-1.95c1.12-0.45,2.34-0.68,3.66-0.68c1.67,0,3.14,0.36,4.42,1.07c1.27,0.71,2.27,1.71,3,2.98
		c0.73,1.27,1.09,2.73,1.09,4.38c0,0.6-0.14,1.03-0.41,1.29c-0.27,0.26-0.66,0.42-1.15,0.47L904.37,475.16z"/>
	<path class="st5" d="M924.22,457.57c0-0.57,0.21-1.06,0.62-1.46c0.41-0.4,0.92-0.6,1.52-0.6c0.63,0,1.14,0.2,1.52,0.6
		c0.38,0.4,0.58,0.88,0.58,1.46c0,0.58-0.19,1.06-0.58,1.46c-0.38,0.4-0.89,0.6-1.52,0.6c-0.6,0-1.11-0.2-1.52-0.6
		C924.43,458.63,924.22,458.14,924.22,457.57z M928,473.31h-3.29v-9.66c0.14-0.06,0.35-0.12,0.64-0.18c0.29-0.07,0.6-0.1,0.92-0.1
		c0.58,0,1.01,0.12,1.3,0.35c0.29,0.23,0.43,0.62,0.43,1.17V473.31z M924.71,471.71H928v10.77c-0.14,0.06-0.34,0.12-0.62,0.18
		c-0.27,0.07-0.58,0.1-0.9,0.1c-0.58,0-1.01-0.12-1.31-0.35c-0.3-0.23-0.45-0.61-0.45-1.13V471.71z"/>
	<path class="st5" d="M947.36,479.31V465.5l3.29-0.04v13.98c0,0.52-0.12,0.94-0.35,1.25c-0.23,0.32-0.6,0.62-1.09,0.93
		c-0.55,0.36-1.33,0.69-2.34,1.01c-1.01,0.31-2.18,0.47-3.49,0.47c-1.97,0-3.71-0.34-5.22-1.03s-2.69-1.76-3.54-3.23
		c-0.85-1.47-1.27-3.36-1.27-5.69c0-2.38,0.42-4.32,1.25-5.8c0.84-1.48,1.97-2.57,3.39-3.27s2.99-1.05,4.69-1.05
		c1.07,0,2.08,0.15,3.04,0.45c0.96,0.3,1.71,0.67,2.26,1.11v3.04c-0.52-0.52-1.2-0.97-2.03-1.33c-0.84-0.37-1.82-0.56-2.94-0.56
		c-1.12,0-2.17,0.24-3.12,0.72c-0.96,0.48-1.73,1.27-2.3,2.36c-0.57,1.1-0.86,2.56-0.86,4.4c0,2.49,0.6,4.31,1.81,5.45
		c1.21,1.14,2.81,1.71,4.81,1.71c0.96,0,1.75-0.1,2.36-0.31C946.32,479.87,946.87,479.61,947.36,479.31z M950.65,466.28l-3.29,0.04
		v-10.4c0.14-0.06,0.35-0.12,0.64-0.19c0.29-0.07,0.58-0.1,0.88-0.1c0.6,0,1.05,0.12,1.34,0.35c0.29,0.23,0.43,0.61,0.43,1.13
		V466.28z"/>
	<path class="st5" d="M958.09,475.16l-0.16-2.59l12.41-1.69c-0.11-1.51-0.63-2.75-1.56-3.72c-0.93-0.97-2.22-1.46-3.86-1.46
		c-1.7,0-3.1,0.61-4.21,1.83c-1.11,1.22-1.66,2.97-1.66,5.24v0.9c0.19,2.19,0.91,3.86,2.16,5c1.25,1.14,2.95,1.71,5.12,1.71
		c1.15,0,2.19-0.19,3.12-0.58c0.93-0.38,1.67-0.8,2.22-1.23c0.3,0.19,0.54,0.42,0.72,0.68c0.18,0.26,0.27,0.56,0.27,0.88
		c0,0.52-0.29,1.01-0.88,1.46c-0.59,0.45-1.37,0.82-2.34,1.09c-0.97,0.27-2.06,0.41-3.27,0.41c-2.11,0-3.94-0.38-5.49-1.15
		c-1.55-0.77-2.74-1.91-3.58-3.43c-0.84-1.52-1.25-3.38-1.25-5.57c0-1.56,0.23-2.95,0.68-4.17c0.45-1.22,1.08-2.25,1.89-3.1
		c0.81-0.85,1.78-1.5,2.9-1.95c1.12-0.45,2.34-0.68,3.66-0.68c1.67,0,3.14,0.36,4.42,1.07c1.27,0.71,2.27,1.71,3,2.98
		c0.73,1.27,1.09,2.73,1.09,4.38c0,0.6-0.14,1.03-0.41,1.29c-0.27,0.26-0.66,0.42-1.15,0.47L958.09,475.16z"/>
	<path class="st5" d="M975.81,480.83c0-0.66,0.2-1.21,0.6-1.64c0.4-0.44,0.95-0.66,1.66-0.66c0.71,0,1.26,0.22,1.64,0.66
		c0.38,0.44,0.58,0.99,0.58,1.64c0,0.63-0.19,1.17-0.58,1.6c-0.38,0.44-0.93,0.66-1.64,0.66c-0.71,0-1.27-0.22-1.66-0.66
		C976.01,482,975.81,481.46,975.81,480.83z"/>
</g>
<g>
</g>
<g>
</g>
<g>
</g>
<g>
</g>
<g>
</g>
<g>
</g>
<g>
</g>
<g>
</g>
<g>
</g>
<g>
</g>
<g>
</g>
<g>
</g>
<g>
</g>
<g>
</g>
<g>
</g>
</svg>
