<?xml version="1.0" encoding="utf-8"?>
<!-- Generator: Adobe Illustrator 29.8.2, SVG Export Plug-In . SVG Version: 9.03 Build 0)  -->
<svg version="1.1" id="Ebene_1" xmlns="http://www.w3.org/2000/svg" xmlns:xlink="http://www.w3.org/1999/xlink" x="0px" y="0px"
	 viewBox="0 0 1366 550" style="enable-background:new 0 0 1366 550;" xml:space="preserve">
<style type="text/css">
	.st0{fill:#5A6380;}
	.st1{fill:#DA7D6E;}
	.st2{fill:#9AC2AA;}
	.st3{fill:#F3C880;}
	.st4{fill:none;}
	.st5{fill:#5A637F;}
</style>
<g>
	<path class="st0" d="M1139.04,335.48c2.36-0.26,4.78-0.05,6.97,0.87c2.35,0.99,4.75,2.86,4.97,6.38c0.43,7.05-5.55,9.18-9.61,9.18
		h-28.78c-1.59,0-3.18,0.03-4.77,0.16c-1.79,0.14-4.81,0.08-5.1-1.86c-0.43-2.78,3.2-4.49,3.2-4.49S1119.74,337.62,1139.04,335.48z"
		/>
	<path class="st1" d="M1097.74,359.05c-0.03-1.03,0.8-1.91,1.83-1.88c1.33,0.03,3.45,0.74,6.55,3.5
		c4.93,4.41,13.94,12.15,16.94,14.73c0.51,0.44,1.03,0.86,1.57,1.27c1.97,1.5,8.29,6.86,5.2,11.76c-1.82,2.88-4.75,2.88-7.24,2.16
		c-2.39-0.69-4.49-2.12-6.17-3.95c-3.97-4.33-13.91-15.32-16.29-19.57C1098.2,363.61,1097.79,360.68,1097.74,359.05z"/>
	<path class="st2" d="M1058.5,335.26c0,0,3.42-5.98-6.41-13.67c-6.73-5.27-13.77-8.43-17.53-9.9c-2.12-0.83-4.39-1.2-6.65-1
		c-3.33,0.29-7.72,1.5-8.5,5.78c-0.52,2.84,0.01,5.2,0.82,7c1.06,2.36,3.1,4.14,5.52,5.05c6.17,2.33,21.81,8.2,24.2,8.88
		C1052.94,338.25,1057.2,338.32,1058.5,335.26z"/>
	<path class="st3" d="M1050.81,277.59c0,0-6.87,4.01-5.13,13.24c1.28,6.76,8.27,20.41,11.49,27.22c1.02,2.16,1.88,4.38,2.66,6.64
		c0.96,2.77,2.87,6.64,5.93,6.09c4.7-0.85,4.91-6.19,3.42-10.89s-6.54-21.46-7.69-26.7c-1.1-5.05-0.34-10.89-3.91-14.52
		C1054.01,275.03,1050.81,277.59,1050.81,277.59z"/>
	<path class="st2" d="M1093.95,340.81c0,0-4.81-4.7,3.79-10.89c8.6-6.19,16.46-19.31,16.46-19.31s-5.73-4.39-5.51-9.31
		c0.21-4.91,2.27-5.77,5.51-5.13s12.21,2.59,13.92,7.6c1.71,5,1.71,11.84-4.91,19.31c-6.62,7.48-19.44,20.71-23.07,20.6
		C1096.51,343.59,1093.95,340.81,1093.95,340.81z"/>
	<path class="st1" d="M1101.24,274.17c-2.59-1.44-5.65-1.9-8.54-1.27c-3.41,0.74-7.81,2.93-10.71,8.96
		c-5.34,11.11-5.55,28.74-5.55,28.74l-0.85,12.69c0,0-1.07,7.8,3.42,7.53c4.49-0.27,4.49-1.9,6.19-6.53
		c1.71-4.63,10.56-31.75,12.54-33.04c0,0,3.19,3.9,4.94,4.73s6.02,2.59,7.08,0c1.07-2.59,1.71-4.51-1.5-7.72
		c-3.2-3.2-4.56-11.75-5.59-13.03C1102.38,274.88,1101.85,274.51,1101.24,274.17z"/>
	<circle class="st2" cx="1137.01" cy="289.49" r="10.17"/>
	<circle class="st1" cx="1103.22" cy="259.08" r="10.17"/>
</g>
<g>
	<rect x="268.91" y="352.12" class="st4" width="839.02" height="85.18"/>
	<path class="st5" d="M286.64,372.99c-1,2.85-1.23,5.24-1.62,8.63c3.85-0.62,7.09-1,11.33-1c10.33,0,13.64,8.4,7.55,8.4
		c-6.32,0-13.26,2.77-19.58,5.09c0.08,6.78-0.39,14.8,0.92,18.42c2.54,6.94-8.25,3.7-9.79-3.47c-2.39-11.1-1.62-26.36-0.23-37.23
		c-3.24-2.93-5.4-7.24-2.39-8.09c5.86-1.62,11.87-3.24,18.65-3.24c4.32,0,5.32-0.39,10.02,1.16c6.24,2,9.02,10.48,5.86,9.94
		C300.28,370.44,293.19,370.37,286.64,372.99z"/>
	<path class="st5" d="M337.27,381.77c-1,0.77-2-0.31-3.62,0.08c-3.93,0.92-11.79,5.63-13.8,20.81c-0.46,3.62,0.15,7.09,0.46,9.87
		c0.92,7.4-8.4,0.23-9.17-7.17c-0.85-8.17-1.54-23.81-0.08-33.22c1.39-8.71,9.09-0.77,11.1,3.93c1.39-2.47,2.85-3.93,4.08-4.47
		c2.62-1.08,7.86,0.85,11.18,7.32C338.43,380.77,337.58,381.46,337.27,381.77z"/>
	<path class="st5" d="M354.77,415.99c-5.47,1-13.49-0.46-15.8-7.09c-3.47-9.79-2.7-19.42,1.08-26.74
		c3.16-6.09,8.63-11.33,15.11-12.49c2.7-0.46,8.25,1.31,11.1,4.78c4.47,5.47,2,17.03,0.08,19.96c-3.16,4.86-10.1,7.17-22.2,3.31
		c-0.23,1.31-0.31,2.77,0.08,4.08c0.85,2.77,2.62,3.31,6.4,3.62c6.24,0.54,14.03-3.62,18.42-6.86c4.47-3.39,4.7,2.31,1.54,7.48
		C368.1,410.06,362.63,414.6,354.77,415.99z M351.53,384.93c-1.16,1.16-2.31,2.47-3.39,4.01c3.78,0.92,7.4,1.16,9.79-0.54
		c2.08-1.39,3.93-4.86,3.31-7.71C360.55,377.69,352.92,383.62,351.53,384.93z"/>
	<path class="st5" d="M385.83,412.99c1.16,6.63-8.4-0.69-9.4-7.32c-1.08-7.25-1.62-18.04-0.39-26.67
		c1.31-9.63,11.95,4.08,10.94,6.86C384.83,391.71,384.37,404.28,385.83,412.99z M386.68,369.83c-4.78,0.85-8.32-1.08-10.25-6.32
		c-1.54-4.32,0.08-8.25,3.39-8.71c3.7-0.46,5.47,2.39,7.24,5.7C388.6,363.51,389.99,369.29,386.68,369.83z"/>
	<path class="st5" d="M408.33,415.99c-5.47,1-13.49-0.46-15.8-7.09c-3.47-9.79-2.7-19.42,1.08-26.74
		c3.16-6.09,8.63-11.33,15.11-12.49c2.7-0.46,8.25,1.31,11.1,4.78c4.47,5.47,2,17.03,0.08,19.96c-3.16,4.86-10.1,7.17-22.2,3.31
		c-0.23,1.31-0.31,2.77,0.08,4.08c0.85,2.77,2.62,3.31,6.4,3.62c6.24,0.54,14.03-3.62,18.42-6.86c4.47-3.39,4.7,2.31,1.54,7.48
		C421.67,410.06,416.2,414.6,408.33,415.99z M405.1,384.93c-1.16,1.16-2.31,2.47-3.39,4.01c3.78,0.92,7.4,1.16,9.79-0.54
		c2.08-1.39,3.93-4.86,3.31-7.71C414.11,377.69,406.48,383.62,405.1,384.93z"/>
	<path class="st5" d="M465.14,414.6c-12.02-0.31-17.03-10.25-18.11-11.95c-2.39-3.62,1.93-9.02,5.93-3.54
		c1.62,2.31,4.55,4.86,10.02,5.01c4.78,0.15,14.95-11.1,13.49-15.88c-10.94-0.54-15.8,2-21.5,2.39c-4.16,0.23-9.56-5.01-10.71-8.55
		c-2-6.4,16.49-22.35,24.59-23.66c7.78-1.23,9.71,3.39,13.64,7.86c3.54,4.08-2.85,6.09-5.55,4.01c-1.08-0.77-2.62-0.92-3.47-1.85
		c-3.31,0.85-11.1,6.24-14.34,10.33c5.86-0.39,13.03-0.85,18.19,0.54c4.08,1.16,9.25,4.47,10.1,7.32
		C490.49,396.8,478.24,414.91,465.14,414.6z"/>
	<path class="st5" d="M519.47,409.21c-5.32,2.93-8.17,4.93-14.1,5.47c-4.78,0.39-9.02-2.24-12.41-7.63
		c-3.31-5.4-3.7-10.64-3.01-15.34c1.08-7.4,9.63-20.27,15.88-21.66c4.24-0.92,6.55,2.16,9.25,6.55c5.24,8.56,4.16,11.56,2,11.33
		c-3.01-0.38-4.24-5.47-7.24-5.24c-3.24,0.31-6.55,4.47-8.32,7.09c-1.62,2.39-5.93,7.78-3.7,12.87c1.54,3.62,13.8-0.77,17.34-3.24
		c2.54-1.77,6.94-4.08,9.4-4.01c1.46,0.08,2,3.16,1.7,5.7C525.94,403.43,520.86,408.44,519.47,409.21z"/>
	<path class="st5" d="M563.87,404.58c0.23,6.09,2.54,9.25,0.77,10.17c-2.77,1.46-9.48-4.47-10.4-9.33
		c-0.46-2.54-1.08-11.87-0.08-18.5c-4.62,1.62-12.1,21.66-11.87,24.89c0.54,7.09-8.79,0.08-9.94-6.94
		c-2.54-15.34,0.31-34.84,3.08-48.63c2-9.79,12.25,3.93,10.87,6.55c-2.08,3.93-4.62,24.74-4.93,29.52
		c4.47-11.64,8.17-17.57,10.56-18.65c5.32-2.39,14.1,6.24,13.26,9.87C563.64,389.94,563.72,400.65,563.87,404.58z"/>
	<path class="st5" d="M601.48,411.29c1.08,7.4-8.48-1.7-9.4-9.09l-0.08-0.23c-3.01,6.47-6.24,11.02-9.25,11.33
		c-3.01,0.23-11.64-5.7-13.64-13.02c-1.39-5.01-1.62-11.87-1-15.95c0.92-6.32,1.77-12.33,3.93-12.95
		c2.31-0.69,10.87,6.78,7.63,13.72c-1.7,3.62-2.39,14.03-0.54,16.96c3.7-3.62,8.79-10.79,12.18-25.67c0.23-1.16,0.15-2.39,0.31-3.55
		c1.39-10.4,11.95,5.78,10.94,8.71C600.4,387.71,600.02,401.5,601.48,411.29z"/>
	<path class="st5" d="M618.44,387.86c-0.08,8.79-0.15,16.72,1.62,24.12c1.7,7.01-8.71,0.15-10.33-6.86
		c-3.62-15.26-1.54-35.61,0.08-49.33c1.16-9.71,12.79,5.55,11.64,8.17C619.67,367.98,618.52,383.85,618.44,387.86z"/>
	<path class="st5" d="M642.1,415.99c-5.47,1-13.49-0.46-15.8-7.09c-3.47-9.79-2.7-19.42,1.08-26.74
		c3.16-6.09,8.63-11.33,15.11-12.49c2.7-0.46,8.25,1.31,11.1,4.78c4.47,5.47,2,17.03,0.08,19.96c-3.16,4.86-10.1,7.17-22.2,3.31
		c-0.23,1.31-0.31,2.77,0.08,4.08c0.85,2.77,2.62,3.31,6.4,3.62c6.24,0.54,14.03-3.62,18.42-6.86c4.47-3.39,4.7,2.31,1.54,7.48
		C655.43,410.06,649.96,414.6,642.1,415.99z M638.86,384.93c-1.16,1.16-2.31,2.47-3.39,4.01c3.78,0.92,7.4,1.16,9.79-0.54
		c2.08-1.39,3.93-4.86,3.31-7.71C647.88,377.69,640.25,383.62,638.86,384.93z"/>
	<path class="st5" d="M705.37,412.6c-7.94,2.08-20.58-3.01-23.58-9.63c-3.01-6.71-2.62-9.4-2.31-15.65
		c0.39-7.71,10.64-24.28,19.27-25.66c8.55-1.31,15.03,0.77,19.96,8.71c4.62,7.32,5.86,15.72,2.7,26.98
		C719.71,403.35,713.24,410.52,705.37,412.6z M704.29,371.06c-4.32,1.77-11.64,11.72-13.8,18.11c-2.85,8.32-0.92,15.88,4.93,14.88
		c9.48-1.62,14.03-10.17,16.18-17.19C713.54,380.62,712.16,367.82,704.29,371.06z"/>
	<path class="st5" d="M755.93,408.28c-1.93,1.7-8.55,7.55-12.18,7.86c-9.17,0.77-12.1-6.86-16.96-11.33c-1.08-1-3.01-4.55-1-5.93
		c0.92-0.62-0.15-1.77,4.08,2.16c3.85,3.62,6.71,5.01,12.18,3.47c2.08-0.62,10.71-6.71,8.71-8.79c-1.23-1.31-11.79-0.69-15.95,0.54
		c-2.08,0.62-9.09-5.63-8.86-8.94c0.23-3.39,2.24-7.78,4.24-10.25c4.55-5.55,7.4-7.63,11.41-8.02c4.86-0.39,8.55,6.55,11.64,10.79
		c0.31,0.46,1.16,2.62,0.46,3.01c-2.77,1.46-6.32-3.62-9.4-3.39c-1.62,0.15-7.63,4.24-7.09,5.63c7.4,1.08,15.26-0.46,19.73,5.86
		C759.55,394.64,760.02,404.58,755.93,408.28z"/>
	<path class="st5" d="M778.44,413.68c-5.55,2.62-12.41-1.77-13.8-9.4c-1.08-6.09-1.16-12.56-0.77-18.96
		c-2.24-0.39-5.7-2.31-6.94-3.93c-1.16-1.54-2.7-4.93-0.85-5.55c2.77-1,5.86-1.7,8.94-2.24c0.77-5.63,1.77-11.02,2.62-16.03
		c1.7-9.71,12.41,5.7,11.1,8.32c-0.54,1.16-1.16,3.55-1.62,6.47c3.78,0,10.41,0.85,11.48,3.7c0.69,2-5.01,3.01-6.47,3.47
		c-1.7,0.46-3.93,1.31-6.24,2.16c-0.54,4.55-0.93,8.71-1.16,10.33c-0.39,2.85-0.62,8.71,0.85,11.18c1.23,1.93,5.24,1.31,8.63-2.31
		c0.85-0.92,3.55-5.24,4.62-1.62C790,403.28,782.22,411.91,778.44,413.68z"/>
	<path class="st5" d="M810.35,367.9c-1.77,1.31-3.7,9.56-4.16,11.79c2.7-0.23,14.03,0.15,14.41,3.62c0.23,2.16-5.32,2.93-6.86,3.39
		c-3.01,0.92-5.78,2.54-8.63,3.93c-0.23,4.78-0.23,9.63,0.23,14.41c0.23,2.39,0.69,4.78,1,7.17c0.15,1.16,0.39,2.47-0.62,3.47
		c-1.77,1.77-6.47-2.85-7.48-4.16c-1-1.31-1.85-2.62-2.23-4.24c-1.23-4.78-1.08-10.33-0.92-15.26c-1.77-0.69-4.01-1.93-5.32-3.39
		c-1-1.16-3.08-4.39-1.31-5.63c1.54-1.08,5.55-1.85,7.4-2.16c0.69-6.17,1.54-12.87,3.62-18.81c1.23-3.62,3.47-6.09,7.4-6.47
		c6.63-0.62,10.94,6.78,13.64,11.71c1,1.77,2.62,4.7,0.31,6.17C817.82,375.38,813.28,365.82,810.35,367.9z"/>
	<path class="st5" d="M851.27,381.77c-1,0.77-2-0.31-3.62,0.08c-3.93,0.92-11.79,5.63-13.8,20.81c-0.46,3.62,0.15,7.09,0.46,9.87
		c0.92,7.4-8.4,0.23-9.17-7.17c-0.85-8.17-1.54-23.81-0.08-33.22c1.39-8.71,9.09-0.77,11.1,3.93c1.39-2.47,2.85-3.93,4.08-4.47
		c2.62-1.08,7.86,0.85,11.18,7.32C852.43,380.77,851.58,381.46,851.27,381.77z"/>
	<path class="st5" d="M866.46,412.99c1.16,6.63-8.4-0.69-9.4-7.32c-1.08-7.25-1.62-18.04-0.39-26.67
		c1.31-9.63,11.95,4.08,10.94,6.86C865.45,391.71,864.99,404.28,866.46,412.99z M867.3,369.83c-4.78,0.85-8.32-1.08-10.25-6.32
		c-1.54-4.32,0.08-8.25,3.39-8.71c3.7-0.46,5.47,2.39,7.25,5.7C869.23,363.51,870.62,369.29,867.3,369.83z"/>
	<path class="st5" d="M888.96,415.99c-5.47,1-13.49-0.46-15.8-7.09c-3.47-9.79-2.7-19.42,1.08-26.74
		c3.16-6.09,8.63-11.33,15.11-12.49c2.7-0.46,8.25,1.31,11.1,4.78c4.47,5.47,2,17.03,0.08,19.96c-3.16,4.86-10.1,7.17-22.2,3.31
		c-0.23,1.31-0.31,2.77,0.08,4.08c0.85,2.77,2.62,3.31,6.4,3.62c6.24,0.54,14.03-3.62,18.42-6.86c4.47-3.39,4.7,2.31,1.54,7.48
		C902.29,410.06,896.82,414.6,888.96,415.99z M885.72,384.93c-1.16,1.16-2.31,2.47-3.39,4.01c3.78,0.92,7.4,1.16,9.79-0.54
		c2.08-1.39,3.93-4.86,3.31-7.71C894.74,377.69,887.11,383.62,885.72,384.93z"/>
	<path class="st5" d="M943.37,408.28c-1.93,1.7-8.55,7.55-12.18,7.86c-9.17,0.77-12.1-6.86-16.96-11.33c-1.08-1-3.01-4.55-1-5.93
		c0.92-0.62-0.15-1.77,4.08,2.16c3.85,3.62,6.71,5.01,12.18,3.47c2.08-0.62,10.71-6.71,8.71-8.79c-1.23-1.31-11.79-0.69-15.95,0.54
		c-2.08,0.62-9.09-5.63-8.86-8.94c0.23-3.39,2.24-7.78,4.24-10.25c4.55-5.55,7.4-7.63,11.41-8.02c4.86-0.39,8.55,6.55,11.64,10.79
		c0.31,0.46,1.16,2.62,0.46,3.01c-2.77,1.46-6.32-3.62-9.4-3.39c-1.62,0.15-7.63,4.24-7.09,5.63c7.4,1.08,15.26-0.46,19.73,5.86
		C946.99,394.64,947.45,404.58,943.37,408.28z"/>
	<path class="st5" d="M961.09,387.86c-0.08,8.79-0.15,16.72,1.62,24.12c1.7,7.01-8.71,0.15-10.33-6.86
		c-3.62-15.26-1.54-35.61,0.08-49.33c1.16-9.71,12.79,5.55,11.64,8.17C962.33,367.98,961.17,383.85,961.09,387.86z"/>
	<path class="st5" d="M999.86,409.52c0.08,1-0.08,1.31-0.46,1.85c-1.85,3.01-5.32,1.62-7.86-1.62c-2.93,2.54-6.94,5.16-11.71,5.55
		c-3.47,0.31-9.33-3.85-10.87-8.17c-1.62-4.39-2-6.55-1.39-12.64c0.69-7.32,7.55-12.02,14.34-9.17c2.47,1,5.01,2,7.4,3.08
		c0.46-2.62,0.92-5.32,1.23-8.09c0.46-4.39-8.48-4.16-11.02-1.93c-2.47,2.16-6.47,3.85-7.55,2.16c-1.08-1.85,1.16-5.24,3.47-7.71
		c2.93-3.16,7.48-4.86,12.33-4.62c3.93,0.15,13.03,8.25,12.79,12.41C999.71,394.57,999.32,400.96,999.86,409.52z M978.74,395.8
		c-2.62,1.77-5.63,6.09-4.01,9.17c1.46,2.77,8.86-2.7,13.26-6.24c0.08-0.54,0.08-1.08,0.08-1.62
		C985.14,395.95,980.59,394.49,978.74,395.8z"/>
	<path class="st5" d="M1036.62,402.66c0.08,6.71,2.31,10.33,0.46,11.25c-2.85,1.46-8.86-4.39-9.63-12.1
		c-0.31-2.77-0.31-11.1,0.92-18.42c-4.08,1.46-9.33,11.87-12.56,26.13c-0.23,1-0.15,2.31,0,3.16c1.08,7.4-8.94-0.08-9.94-7.4
		c-1.08-8.17-1.62-20.81-0.38-30.14c1.31-10.48,11.33,2,10.33,5.01c-0.69,2.08-1.16,5.4-1.31,9.25c2.85-8.63,6.4-14.95,8.09-16.49
		c2.39-2.08,3.39-3.85,8.79-0.62c4.01,2.39,8.09,7.17,7.32,10.33C1037.01,389.63,1036.62,398.42,1036.62,402.66z"/>
	<path class="st5" d="M1075.08,392.56c-0.08,5.86,0.08,11.1,1.46,18.19c1,5.24-5.39,2.08-8.79-2.85c-3.31,3.78-7.24,7.48-12.64,7.94
		c-3.93,0.31-10.25-3.85-11.95-8.63c-1.77-4.86-2.24-11.79,0.15-21.58c1.31-5.55,7.01-11.64,14.57-9.63
		c2.31,0.62,4.86,1.54,7.32,2.7c0.62-8.4,1.77-16.57,2.39-23.28c0.85-9.48,11.25,4.24,10.56,7.01
		C1076.24,370.06,1075.24,384.16,1075.08,392.56z M1064.75,389.09c-2.93-1.16-6.01-2.16-8.32-0.77c-6.09,3.62-7.71,11.25-6.47,15.72
		c0.46,1.85,3.55,1.54,6.86-0.15c1.93-0.92,5.63-5.55,7.94-11.1C1064.75,391.56,1064.68,390.33,1064.75,389.09z"/>
</g>
<g>
	<path class="st5" d="M427.22,475.01v-0.16v3.59c-0.23,0.18-0.53,0.34-0.9,0.47c-0.36,0.13-0.77,0.2-1.21,0.2
		c-0.62,0-1.16-0.12-1.6-0.37c-0.44-0.25-0.85-0.7-1.21-1.35l-7.41-12.48c-0.39-0.7-0.82-1.48-1.29-2.32
		c-0.47-0.85-0.91-1.65-1.33-2.42c-0.42-0.77-0.74-1.4-0.98-1.89l-2.89,0.74v-3.39c0.21-0.21,0.5-0.38,0.88-0.51
		c0.38-0.13,0.79-0.2,1.23-0.2c0.62,0,1.16,0.12,1.6,0.37c0.44,0.25,0.84,0.7,1.21,1.35l7.45,12.48c0.42,0.7,0.85,1.48,1.31,2.32
		c0.45,0.85,0.88,1.65,1.27,2.42c0.39,0.77,0.7,1.4,0.94,1.89L427.22,475.01z M408.42,457.85l2.65-0.23c0.1,0.81,0.2,1.75,0.27,2.85
		c0.08,1.09,0.14,2.22,0.18,3.37c0.04,1.16,0.06,2.26,0.06,3.3v11.67c-0.13,0.05-0.33,0.11-0.6,0.18c-0.27,0.06-0.55,0.1-0.84,0.1
		c-0.57,0-1-0.11-1.29-0.33c-0.29-0.22-0.43-0.58-0.43-1.07V457.85z M427.22,476.18l-2.69,0.23c-0.26-2.18-0.41-4.41-0.45-6.69
		c-0.04-2.28-0.06-4.48-0.06-6.61v-7.88c0.16-0.05,0.36-0.11,0.62-0.18c0.26-0.06,0.55-0.1,0.86-0.1c0.57,0,1,0.11,1.29,0.33
		c0.29,0.22,0.43,0.58,0.43,1.07V476.18z"/>
	<path class="st5" d="M440.02,460.34c2.26,0,4.06,0.51,5.38,1.52s1.99,2.61,1.99,4.8v9.25c0,0.57-0.11,1.01-0.33,1.31
		s-0.55,0.58-0.99,0.84c-0.62,0.34-1.46,0.65-2.5,0.94c-1.04,0.29-2.21,0.43-3.51,0.43c-2.45,0-4.34-0.48-5.68-1.44
		c-1.34-0.96-2.01-2.35-2.01-4.18c0-1.69,0.57-2.98,1.7-3.88c1.13-0.9,2.7-1.44,4.7-1.62l5.54-0.55v-1.09c0-1.3-0.39-2.25-1.17-2.85
		c-0.78-0.6-1.83-0.9-3.16-0.9c-1.07,0-2.09,0.16-3.06,0.47c-0.98,0.31-1.84,0.66-2.59,1.05c-0.21-0.18-0.4-0.4-0.57-0.64
		c-0.17-0.25-0.25-0.5-0.25-0.76c0-0.68,0.38-1.2,1.13-1.56c0.7-0.36,1.51-0.64,2.44-0.84C438,460.44,438.98,460.34,440.02,460.34z
		 M440.06,476.85c1.09,0,2-0.11,2.71-0.33s1.23-0.44,1.54-0.64v-5.66l-4.84,0.51c-1.35,0.1-2.35,0.4-3,0.9
		c-0.65,0.5-0.98,1.21-0.98,2.15c0,0.96,0.38,1.72,1.15,2.26C437.41,476.57,438.55,476.85,440.06,476.85z"/>
	<path class="st5" d="M456.25,469.75h-3.12v-14.12c0.13-0.05,0.33-0.11,0.6-0.18c0.27-0.06,0.57-0.1,0.88-0.1
		c0.55,0,0.96,0.11,1.23,0.33c0.27,0.22,0.41,0.58,0.41,1.07V469.75z M453.13,468.58h3.12v5.38c0,1.04,0.3,1.78,0.9,2.2
		c0.6,0.43,1.42,0.64,2.46,0.64c0.44,0,0.94-0.08,1.48-0.23c0.55-0.16,1-0.34,1.37-0.55c0.16,0.16,0.3,0.35,0.43,0.59
		c0.13,0.23,0.19,0.51,0.19,0.82c0,0.57-0.34,1.04-1.01,1.4c-0.68,0.36-1.61,0.55-2.81,0.55c-1.82,0-3.3-0.4-4.43-1.21
		c-1.13-0.8-1.7-2.15-1.7-4.02V468.58z M454.73,463.82v-2.58h7.92c0.08,0.1,0.16,0.27,0.23,0.51c0.08,0.23,0.12,0.48,0.12,0.74
		c0,0.42-0.1,0.74-0.31,0.98c-0.21,0.23-0.49,0.35-0.86,0.35H454.73z"/>
	<path class="st5" d="M470.53,470.76h-3.12v-9.83c0.13-0.05,0.33-0.11,0.6-0.18c0.27-0.07,0.57-0.1,0.88-0.1
		c0.55,0,0.96,0.11,1.23,0.33c0.27,0.22,0.41,0.59,0.41,1.11V470.76z M467.41,472.28v-3.55h3.12v3.39c0,1.67,0.44,2.86,1.33,3.59
		c0.88,0.73,2.11,1.09,3.67,1.09c1.04,0,1.92-0.11,2.65-0.33c0.73-0.22,1.3-0.45,1.72-0.68v-7.06h3.12v6.94
		c0,0.55-0.07,0.98-0.21,1.31c-0.14,0.33-0.49,0.64-1.03,0.96c-0.57,0.34-1.39,0.66-2.46,0.98c-1.07,0.31-2.34,0.47-3.82,0.47
		c-1.72,0-3.18-0.25-4.39-0.76c-1.21-0.51-2.13-1.29-2.75-2.34C467.72,475.23,467.41,473.89,467.41,472.28z M473.69,455.43
		c0,0.49-0.18,0.93-0.55,1.31c-0.36,0.38-0.83,0.57-1.4,0.57c-0.55,0-0.99-0.19-1.35-0.57c-0.35-0.38-0.53-0.81-0.53-1.31
		c0-0.52,0.18-0.96,0.53-1.33c0.35-0.36,0.8-0.55,1.35-0.55c0.57,0,1.04,0.18,1.4,0.55C473.5,454.47,473.69,454.91,473.69,455.43z
		 M480.44,455.43c0,0.49-0.19,0.93-0.57,1.31c-0.38,0.38-0.84,0.57-1.39,0.57c-0.52,0-0.97-0.19-1.35-0.57
		c-0.38-0.38-0.57-0.81-0.57-1.31c0-0.52,0.19-0.96,0.57-1.33c0.38-0.36,0.83-0.55,1.35-0.55c0.55,0,1.01,0.18,1.39,0.55
		C480.25,454.47,480.44,454.91,480.44,455.43z M483.01,470.76h-3.12v-9.83c0.13-0.05,0.33-0.11,0.6-0.18
		c0.27-0.07,0.55-0.1,0.84-0.1c0.57,0,0.99,0.11,1.27,0.33c0.27,0.22,0.41,0.59,0.41,1.11V470.76z"/>
	<path class="st5" d="M491.98,464.21v6.16h-3.12v-5.93c0-0.6,0.11-1.07,0.33-1.42c0.22-0.35,0.59-0.7,1.11-1.03
		c0.68-0.44,1.6-0.83,2.77-1.15s2.47-0.49,3.9-0.49c2.08,0,3.12,0.52,3.12,1.56c0,0.26-0.04,0.5-0.12,0.72
		c-0.08,0.22-0.18,0.41-0.31,0.57c-0.26-0.05-0.6-0.1-1.01-0.16c-0.42-0.05-0.83-0.08-1.25-0.08c-1.2,0-2.25,0.12-3.16,0.37
		C493.33,463.58,492.58,463.87,491.98,464.21z M488.86,468.58l3.12,0.47v9.75c-0.13,0.05-0.33,0.11-0.59,0.18
		c-0.26,0.06-0.55,0.1-0.86,0.1c-0.55,0-0.96-0.11-1.25-0.33c-0.29-0.22-0.43-0.58-0.43-1.07V468.58z"/>
	<path class="st5" d="M507.2,470.53l-3.12-0.43v-16.5c0.13-0.05,0.33-0.11,0.6-0.18c0.27-0.06,0.55-0.1,0.84-0.1
		c0.57,0,0.99,0.11,1.27,0.33s0.41,0.58,0.41,1.07V470.53z M504.08,468.58l3.12,0.47v9.75c-0.13,0.05-0.33,0.11-0.59,0.18
		c-0.26,0.06-0.55,0.1-0.86,0.1c-0.55,0-0.96-0.11-1.25-0.33c-0.29-0.22-0.43-0.58-0.43-1.07V468.58z"/>
	<path class="st5" d="M513.17,455.16c0-0.55,0.2-1.01,0.59-1.38c0.39-0.38,0.87-0.57,1.44-0.57c0.6,0,1.08,0.19,1.44,0.57
		c0.36,0.38,0.55,0.84,0.55,1.38c0,0.55-0.18,1.01-0.55,1.39c-0.36,0.38-0.85,0.57-1.44,0.57c-0.57,0-1.05-0.19-1.44-0.57
		C513.36,456.16,513.17,455.7,513.17,455.16z M516.75,470.1h-3.12v-9.17c0.13-0.05,0.33-0.11,0.6-0.18c0.27-0.07,0.57-0.1,0.88-0.1
		c0.55,0,0.96,0.11,1.23,0.33c0.27,0.22,0.41,0.59,0.41,1.11V470.1z M513.63,468.58h3.12v10.22c-0.13,0.05-0.33,0.11-0.59,0.18
		c-0.26,0.06-0.55,0.1-0.86,0.1c-0.55,0-0.96-0.11-1.25-0.33c-0.29-0.22-0.43-0.58-0.43-1.07V468.58z"/>
	<path class="st5" d="M531.19,462.96c-1.77,0-3.24,0.6-4.41,1.79c-1.17,1.2-1.76,2.91-1.76,5.15c0,2.21,0.57,3.91,1.7,5.11
		c1.13,1.2,2.62,1.8,4.47,1.8c1.09,0,2-0.15,2.73-0.45s1.38-0.64,1.95-1.03c0.29,0.16,0.52,0.35,0.7,0.59
		c0.18,0.23,0.27,0.52,0.27,0.86c0,0.73-0.54,1.35-1.62,1.85c-1.08,0.51-2.43,0.76-4.04,0.76c-1.79,0-3.4-0.35-4.82-1.03
		c-1.42-0.69-2.53-1.74-3.34-3.14c-0.81-1.4-1.21-3.17-1.21-5.31c0-2.11,0.42-3.87,1.25-5.29c0.83-1.42,1.96-2.48,3.37-3.2
		c1.42-0.72,2.97-1.07,4.66-1.07c1.61,0,2.95,0.27,4,0.82c1.05,0.55,1.58,1.17,1.58,1.87c0,0.31-0.09,0.59-0.27,0.82
		c-0.18,0.23-0.42,0.42-0.7,0.55c-0.57-0.39-1.2-0.73-1.89-1.01C533.13,463.1,532.26,462.96,531.19,462.96z"/>
	<path class="st5" d="M544.69,470.1h-3.12v-16.5c0.13-0.05,0.33-0.11,0.6-0.18c0.27-0.06,0.57-0.1,0.88-0.1
		c0.55,0,0.96,0.11,1.23,0.33c0.27,0.22,0.41,0.58,0.41,1.07V470.1z M541.57,468.58h3.12v10.22c-0.13,0.05-0.33,0.11-0.59,0.18
		c-0.26,0.06-0.55,0.1-0.86,0.1c-0.55,0-0.96-0.11-1.25-0.33c-0.29-0.22-0.43-0.58-0.43-1.07V468.58z M557.13,471.11h-3.12v-3.59
		c0-1.56-0.44-2.72-1.31-3.47c-0.87-0.75-2-1.13-3.37-1.13c-1.01,0-1.96,0.2-2.83,0.59c-0.87,0.39-1.61,0.86-2.2,1.4l-0.59-2.54
		c0.62-0.44,1.45-0.89,2.48-1.35c1.03-0.45,2.22-0.68,3.57-0.68c2.16,0,3.93,0.59,5.31,1.76c1.38,1.17,2.07,2.95,2.07,5.34V471.11z
		 M554.01,468.61l3.12,0.04v10.14c-0.13,0.05-0.33,0.11-0.6,0.18c-0.27,0.06-0.55,0.1-0.84,0.1c-0.57,0-0.99-0.11-1.27-0.33
		c-0.27-0.22-0.41-0.58-0.41-1.07V468.61z"/>
	<path class="st5" d="M564.11,471.85l-0.16-2.46l11.78-1.6c-0.1-1.43-0.6-2.61-1.48-3.53c-0.88-0.92-2.11-1.39-3.67-1.39
		c-1.61,0-2.95,0.58-4,1.74c-1.05,1.16-1.58,2.81-1.58,4.97v0.86c0.18,2.08,0.86,3.66,2.05,4.74c1.18,1.08,2.8,1.62,4.86,1.62
		c1.09,0,2.08-0.18,2.97-0.55c0.88-0.36,1.59-0.75,2.11-1.17c0.29,0.18,0.51,0.4,0.68,0.64c0.17,0.25,0.25,0.53,0.25,0.84
		c0,0.49-0.28,0.96-0.84,1.38c-0.56,0.43-1.3,0.77-2.22,1.03c-0.92,0.26-1.96,0.39-3.1,0.39c-2,0-3.74-0.36-5.21-1.09
		c-1.47-0.73-2.6-1.81-3.39-3.26c-0.79-1.44-1.19-3.2-1.19-5.29c0-1.48,0.21-2.8,0.64-3.96c0.43-1.16,1.03-2.14,1.79-2.95
		c0.77-0.81,1.68-1.42,2.75-1.85c1.07-0.43,2.22-0.64,3.47-0.64c1.59,0,2.98,0.34,4.19,1.01c1.21,0.68,2.16,1.62,2.85,2.83
		c0.69,1.21,1.03,2.59,1.03,4.15c0,0.57-0.13,0.98-0.39,1.23c-0.26,0.25-0.62,0.4-1.09,0.45L564.11,471.85z"/>
	<path class="st5" d="M596.18,474.08c0,1.66-0.61,2.96-1.83,3.9c-1.22,0.94-2.99,1.4-5.31,1.4c-1.98,0-3.59-0.31-4.84-0.92
		c-1.25-0.61-1.87-1.28-1.87-2.01c0-0.31,0.08-0.62,0.25-0.92c0.17-0.3,0.42-0.54,0.76-0.72c0.7,0.5,1.52,0.95,2.46,1.37
		c0.94,0.42,2,0.63,3.2,0.63c2.7,0,4.06-0.91,4.06-2.73c0-0.75-0.23-1.37-0.68-1.85c-0.46-0.48-1.13-0.83-2.01-1.03l-3.24-0.86
		c-1.59-0.39-2.74-1-3.47-1.81c-0.73-0.82-1.09-1.84-1.09-3.06c0-1.38,0.56-2.58,1.68-3.59c1.12-1.01,2.82-1.52,5.11-1.52
		c1.22,0,2.29,0.12,3.2,0.37c0.91,0.25,1.62,0.57,2.13,0.98c0.51,0.4,0.76,0.84,0.76,1.31c0,0.34-0.08,0.64-0.25,0.9
		c-0.17,0.26-0.4,0.46-0.68,0.59c-0.31-0.21-0.71-0.44-1.19-0.68c-0.48-0.25-1.05-0.45-1.7-0.62c-0.65-0.17-1.37-0.25-2.15-0.25
		c-1.15,0-2.07,0.22-2.77,0.66c-0.7,0.44-1.05,1.07-1.05,1.87c0,0.57,0.2,1.07,0.6,1.5c0.4,0.43,1.05,0.75,1.93,0.95l2.69,0.66
		c1.77,0.42,3.1,1.07,3.98,1.97C595.74,471.44,596.18,472.62,596.18,474.08z"/>
	<path class="st5" d="M616.35,467.37h-3.2v-12.13c0.13-0.05,0.33-0.11,0.6-0.18c0.27-0.06,0.57-0.1,0.88-0.1
		c0.57,0,1,0.11,1.29,0.33c0.29,0.22,0.43,0.59,0.43,1.11V467.37z M613.15,465.03h3.2v13.54l-1.48,0.31c-0.49,0-0.9-0.16-1.23-0.49
		c-0.33-0.33-0.49-0.73-0.49-1.23V465.03z M614.87,478.87v-2.73h12.68c0.13,0.1,0.23,0.27,0.31,0.51c0.08,0.23,0.12,0.5,0.12,0.78
		c0,0.44-0.12,0.79-0.35,1.05c-0.23,0.26-0.55,0.39-0.94,0.39H614.87z"/>
	<path class="st5" d="M632.89,471.85l-0.16-2.46l11.78-1.6c-0.1-1.43-0.6-2.61-1.48-3.53c-0.88-0.92-2.11-1.39-3.67-1.39
		c-1.61,0-2.95,0.58-4,1.74c-1.05,1.16-1.58,2.81-1.58,4.97v0.86c0.18,2.08,0.86,3.66,2.05,4.74c1.18,1.08,2.8,1.62,4.86,1.62
		c1.09,0,2.08-0.18,2.97-0.55c0.88-0.36,1.59-0.75,2.11-1.17c0.29,0.18,0.51,0.4,0.68,0.64c0.17,0.25,0.25,0.53,0.25,0.84
		c0,0.49-0.28,0.96-0.84,1.38c-0.56,0.43-1.3,0.77-2.22,1.03c-0.92,0.26-1.96,0.39-3.1,0.39c-2,0-3.74-0.36-5.21-1.09
		c-1.47-0.73-2.6-1.81-3.39-3.26c-0.79-1.44-1.19-3.2-1.19-5.29c0-1.48,0.22-2.8,0.64-3.96c0.43-1.16,1.03-2.14,1.79-2.95
		s1.68-1.42,2.75-1.85c1.07-0.43,2.22-0.64,3.47-0.64c1.59,0,2.98,0.34,4.19,1.01c1.21,0.68,2.16,1.62,2.85,2.83
		c0.69,1.21,1.03,2.59,1.03,4.15c0,0.57-0.13,0.98-0.39,1.23c-0.26,0.25-0.62,0.4-1.09,0.45L632.89,471.85z"/>
	<path class="st5" d="M655.13,464.21v6.16h-3.12v-5.93c0-0.6,0.11-1.07,0.33-1.42c0.22-0.35,0.59-0.7,1.11-1.03
		c0.68-0.44,1.6-0.83,2.77-1.15c1.17-0.33,2.47-0.49,3.9-0.49c2.08,0,3.12,0.52,3.12,1.56c0,0.26-0.04,0.5-0.12,0.72
		c-0.08,0.22-0.18,0.41-0.31,0.57c-0.26-0.05-0.6-0.1-1.01-0.16c-0.42-0.05-0.83-0.08-1.25-0.08c-1.2,0-2.25,0.12-3.16,0.37
		C656.48,463.58,655.73,463.87,655.13,464.21z M652.01,468.58l3.12,0.47v9.75c-0.13,0.05-0.33,0.11-0.58,0.18
		c-0.26,0.06-0.55,0.1-0.86,0.1c-0.55,0-0.96-0.11-1.25-0.33c-0.29-0.22-0.43-0.58-0.43-1.07V468.58z"/>
	<path class="st5" d="M682.32,466.98v3.98h-3.12v-3.82c0-1.46-0.41-2.52-1.23-3.2s-1.92-1.01-3.3-1.01c-1.04,0-1.96,0.13-2.77,0.39
		c-0.81,0.26-1.5,0.56-2.07,0.9v6.75h-3.12v-6.59c0-0.55,0.11-1,0.33-1.35c0.22-0.35,0.6-0.7,1.15-1.03
		c0.68-0.39,1.57-0.76,2.69-1.11c1.12-0.35,2.38-0.53,3.78-0.53c2.37,0,4.23,0.54,5.6,1.62
		C681.64,463.04,682.32,464.71,682.32,466.98z M666.71,468.81h3.12v9.99c-0.13,0.05-0.33,0.11-0.59,0.18
		c-0.26,0.06-0.55,0.1-0.86,0.1c-0.55,0-0.96-0.11-1.25-0.33c-0.29-0.22-0.43-0.58-0.43-1.07V468.81z M679.2,468.81h3.12v9.99
		c-0.13,0.05-0.33,0.11-0.6,0.18c-0.27,0.06-0.55,0.1-0.84,0.1c-0.57,0-0.99-0.11-1.27-0.33c-0.27-0.22-0.41-0.58-0.41-1.07V468.81z
		"/>
	<path class="st5" d="M689.3,471.85l-0.16-2.46l11.78-1.6c-0.1-1.43-0.6-2.61-1.48-3.53c-0.88-0.92-2.11-1.39-3.67-1.39
		c-1.61,0-2.95,0.58-4,1.74c-1.05,1.16-1.58,2.81-1.58,4.97v0.86c0.18,2.08,0.86,3.66,2.05,4.74c1.18,1.08,2.8,1.62,4.86,1.62
		c1.09,0,2.08-0.18,2.97-0.55c0.88-0.36,1.59-0.75,2.11-1.17c0.29,0.18,0.51,0.4,0.68,0.64c0.17,0.25,0.25,0.53,0.25,0.84
		c0,0.49-0.28,0.96-0.84,1.38c-0.56,0.43-1.3,0.77-2.22,1.03c-0.92,0.26-1.96,0.39-3.1,0.39c-2,0-3.74-0.36-5.21-1.09
		c-1.47-0.73-2.6-1.81-3.39-3.26c-0.79-1.44-1.19-3.2-1.19-5.29c0-1.48,0.22-2.8,0.64-3.96c0.43-1.16,1.03-2.14,1.79-2.95
		s1.68-1.42,2.75-1.85c1.07-0.43,2.22-0.64,3.47-0.64c1.59,0,2.98,0.34,4.19,1.01c1.21,0.68,2.16,1.62,2.85,2.83
		c0.69,1.21,1.03,2.59,1.03,4.15c0,0.57-0.13,0.98-0.39,1.23c-0.26,0.25-0.62,0.4-1.09,0.45L689.3,471.85z"/>
	<path class="st5" d="M724.02,466.98v3.98h-3.12v-3.82c0-1.46-0.41-2.52-1.23-3.2c-0.82-0.68-1.92-1.01-3.3-1.01
		c-1.04,0-1.96,0.13-2.77,0.39c-0.81,0.26-1.5,0.56-2.07,0.9v6.75h-3.12v-6.59c0-0.55,0.11-1,0.33-1.35c0.22-0.35,0.6-0.7,1.15-1.03
		c0.68-0.39,1.57-0.76,2.69-1.11c1.12-0.35,2.38-0.53,3.78-0.53c2.37,0,4.23,0.54,5.6,1.62
		C723.34,463.04,724.02,464.71,724.02,466.98z M708.42,468.81h3.12v9.99c-0.13,0.05-0.33,0.11-0.58,0.18
		c-0.26,0.06-0.55,0.1-0.86,0.1c-0.55,0-0.96-0.11-1.25-0.33c-0.29-0.22-0.43-0.58-0.43-1.07V468.81z M720.9,468.81h3.12v9.99
		c-0.13,0.05-0.33,0.11-0.6,0.18c-0.27,0.06-0.55,0.1-0.84,0.1c-0.57,0-1-0.11-1.27-0.33c-0.27-0.22-0.41-0.58-0.41-1.07V468.81z"/>
	<path class="st5" d="M741.3,455.16c0-0.55,0.2-1.01,0.59-1.38c0.39-0.38,0.87-0.57,1.44-0.57c0.6,0,1.08,0.19,1.44,0.57
		c0.36,0.38,0.55,0.84,0.55,1.38c0,0.55-0.18,1.01-0.55,1.39c-0.36,0.38-0.85,0.57-1.44,0.57c-0.57,0-1.05-0.19-1.44-0.57
		C741.5,456.16,741.3,455.7,741.3,455.16z M744.89,470.1h-3.12v-9.17c0.13-0.05,0.33-0.11,0.6-0.18c0.27-0.07,0.57-0.1,0.88-0.1
		c0.55,0,0.96,0.11,1.23,0.33c0.27,0.22,0.41,0.59,0.41,1.11V470.1z M741.77,468.58h3.12v10.22c-0.13,0.05-0.33,0.11-0.58,0.18
		c-0.26,0.06-0.55,0.1-0.86,0.1c-0.55,0-0.96-0.11-1.25-0.33c-0.29-0.22-0.43-0.58-0.43-1.07V468.58z"/>
	<path class="st5" d="M766.58,466.98v3.98h-3.12v-3.82c0-1.46-0.41-2.52-1.23-3.2c-0.82-0.68-1.92-1.01-3.3-1.01
		c-1.04,0-1.96,0.13-2.77,0.39c-0.81,0.26-1.5,0.56-2.07,0.9v6.75h-3.12v-6.59c0-0.55,0.11-1,0.33-1.35c0.22-0.35,0.6-0.7,1.15-1.03
		c0.68-0.39,1.57-0.76,2.69-1.11c1.12-0.35,2.38-0.53,3.78-0.53c2.37,0,4.23,0.54,5.6,1.62
		C765.9,463.04,766.58,464.71,766.58,466.98z M750.98,468.81h3.12v9.99c-0.13,0.05-0.33,0.11-0.58,0.18
		c-0.26,0.06-0.55,0.1-0.86,0.1c-0.55,0-0.96-0.11-1.25-0.33c-0.29-0.22-0.43-0.58-0.43-1.07V468.81z M763.46,468.81h3.12v9.99
		c-0.13,0.05-0.33,0.11-0.6,0.18c-0.27,0.06-0.55,0.1-0.84,0.1c-0.57,0-1-0.11-1.27-0.33c-0.27-0.22-0.41-0.58-0.41-1.07V468.81z"/>
	<path class="st5" d="M803.45,467.68v8.46c0,0.47-0.14,0.87-0.41,1.19s-0.68,0.62-1.23,0.88c-0.65,0.34-1.55,0.62-2.69,0.84
		c-1.15,0.22-2.3,0.33-3.47,0.33c-2.42,0-4.56-0.44-6.42-1.33c-1.86-0.88-3.31-2.24-4.35-4.06c-1.04-1.82-1.56-4.13-1.56-6.94
		c0-2.78,0.54-5.09,1.62-6.93c1.08-1.83,2.52-3.2,4.31-4.12c1.8-0.91,3.76-1.37,5.89-1.37c1.48,0,2.78,0.16,3.9,0.47
		c1.12,0.31,1.99,0.7,2.61,1.17c0.62,0.47,0.94,0.95,0.94,1.44c0,0.34-0.1,0.64-0.31,0.92c-0.21,0.27-0.45,0.48-0.74,0.6
		c-0.7-0.47-1.53-0.9-2.5-1.31c-0.96-0.4-2.2-0.6-3.71-0.6c-1.64,0-3.12,0.36-4.45,1.09c-1.33,0.73-2.37,1.81-3.14,3.26
		c-0.77,1.44-1.15,3.23-1.15,5.36c0,2.24,0.4,4.06,1.19,5.48c0.79,1.42,1.88,2.46,3.26,3.14c1.38,0.68,2.93,1.01,4.64,1.01
		c0.94,0,1.82-0.08,2.65-0.23c0.83-0.16,1.48-0.35,1.95-0.59v-7.18h-5.89c-0.08-0.13-0.16-0.31-0.23-0.53
		c-0.08-0.22-0.12-0.46-0.12-0.72c0-0.44,0.1-0.79,0.31-1.03c0.21-0.25,0.51-0.37,0.9-0.37h6.51c0.47,0,0.86,0.15,1.19,0.45
		C803.29,466.79,803.45,467.18,803.45,467.68z"/>
	<path class="st5" d="M812.27,464.21v6.16h-3.12v-5.93c0-0.6,0.11-1.07,0.33-1.42c0.22-0.35,0.59-0.7,1.11-1.03
		c0.68-0.44,1.6-0.83,2.77-1.15s2.47-0.49,3.9-0.49c2.08,0,3.12,0.52,3.12,1.56c0,0.26-0.04,0.5-0.12,0.72
		c-0.08,0.22-0.18,0.41-0.31,0.57c-0.26-0.05-0.6-0.1-1.01-0.16c-0.42-0.05-0.83-0.08-1.25-0.08c-1.2,0-2.25,0.12-3.16,0.37
		C813.62,463.58,812.86,463.87,812.27,464.21z M809.14,468.58l3.12,0.47v9.75c-0.13,0.05-0.33,0.11-0.58,0.18
		c-0.26,0.06-0.55,0.1-0.86,0.1c-0.55,0-0.96-0.11-1.25-0.33c-0.29-0.22-0.43-0.58-0.43-1.07V468.58z"/>
	<path class="st5" d="M840.39,469.86c0,1.93-0.36,3.6-1.09,5.03c-0.73,1.43-1.75,2.54-3.08,3.32c-1.33,0.78-2.89,1.17-4.68,1.17
		c-1.79,0-3.36-0.39-4.7-1.17c-1.34-0.78-2.37-1.88-3.1-3.32c-0.73-1.43-1.09-3.11-1.09-5.03c0-1.95,0.37-3.63,1.11-5.05
		c0.74-1.42,1.78-2.52,3.12-3.3c1.34-0.78,2.89-1.17,4.66-1.17c1.77,0,3.32,0.39,4.64,1.17c1.33,0.78,2.36,1.88,3.1,3.3
		C840.02,466.23,840.39,467.91,840.39,469.86z M831.54,462.92c-1.74,0-3.13,0.62-4.15,1.85c-1.03,1.23-1.54,2.93-1.54,5.09
		c0,2.18,0.5,3.89,1.5,5.11c1,1.22,2.4,1.83,4.19,1.83c1.77,0,3.15-0.62,4.16-1.85c1-1.23,1.5-2.93,1.5-5.09
		c0-2.16-0.5-3.86-1.5-5.09C834.69,463.54,833.31,462.92,831.54,462.92z"/>
	<path class="st5" d="M848.55,467.76h-3.12v-7.41c0-1.64,0.34-3.02,1.01-4.15c0.68-1.13,1.59-1.99,2.75-2.58
		c1.16-0.59,2.46-0.88,3.92-0.88c1.48,0,2.81,0.29,3.98,0.88c1.17,0.58,2.1,1.48,2.79,2.67c0.69,1.2,1.03,2.7,1.03,4.53
		c0,0.88-0.46,1.51-1.37,1.87l-1.72,0.66c-0.68,0.34-1.15,0.66-1.42,0.98s-0.41,0.74-0.41,1.29c0,0.52,0.16,0.97,0.47,1.35
		c0.31,0.38,0.88,0.83,1.72,1.35c1.09,0.62,2.01,1.22,2.75,1.78c0.74,0.56,1.3,1.17,1.68,1.83c0.38,0.66,0.57,1.48,0.57,2.44
		c0,1.74-0.6,3.04-1.79,3.9c-1.2,0.86-2.74,1.29-4.64,1.29c-1.51,0-2.68-0.23-3.53-0.7c-0.85-0.47-1.27-1.04-1.27-1.72
		c0-0.31,0.08-0.63,0.25-0.94c0.17-0.31,0.42-0.53,0.76-0.66c0.49,0.39,1.05,0.72,1.68,0.98c0.62,0.26,1.37,0.39,2.22,0.39
		c0.94,0,1.7-0.24,2.28-0.72c0.58-0.48,0.88-1.1,0.88-1.85c0-0.7-0.22-1.31-0.66-1.81c-0.44-0.51-1.31-1.11-2.61-1.81
		c-1.27-0.68-2.25-1.41-2.93-2.2c-0.68-0.79-1.01-1.76-1.01-2.91c0-1.07,0.28-1.95,0.84-2.65c0.56-0.7,1.39-1.29,2.48-1.75l1.68-0.7
		c0-1.46-0.44-2.67-1.31-3.63c-0.87-0.96-2.01-1.44-3.41-1.44c-1.2,0-2.25,0.39-3.16,1.17c-0.91,0.78-1.37,2.05-1.37,3.82V467.76z
		 M845.43,464.36h3.12v14.59c-0.1,0.03-0.29,0.07-0.55,0.14c-0.26,0.07-0.53,0.1-0.82,0.1c-0.57,0-1.01-0.12-1.31-0.37
		c-0.3-0.25-0.45-0.6-0.45-1.07V464.36z"/>
	<path class="st5" d="M870.94,470.1h-3.12v-16.5c0.13-0.05,0.33-0.11,0.6-0.18c0.27-0.06,0.57-0.1,0.88-0.1
		c0.55,0,0.95,0.11,1.23,0.33c0.27,0.22,0.41,0.58,0.41,1.07V470.1z M867.82,468.58h3.12v10.22c-0.13,0.05-0.33,0.11-0.59,0.18
		c-0.26,0.06-0.55,0.1-0.86,0.1c-0.55,0-0.96-0.11-1.25-0.33c-0.29-0.22-0.43-0.58-0.43-1.07V468.58z M883.38,471.11h-3.12v-3.59
		c0-1.56-0.44-2.72-1.31-3.47c-0.87-0.75-2-1.13-3.38-1.13c-1.01,0-1.96,0.2-2.83,0.59c-0.87,0.39-1.61,0.86-2.2,1.4l-0.58-2.54
		c0.62-0.44,1.45-0.89,2.48-1.35c1.03-0.45,2.22-0.68,3.57-0.68c2.16,0,3.93,0.59,5.31,1.76c1.38,1.17,2.07,2.95,2.07,5.34V471.11z
		 M880.26,468.61l3.12,0.04v10.14c-0.13,0.05-0.33,0.11-0.6,0.18c-0.27,0.06-0.55,0.1-0.84,0.1c-0.57,0-0.99-0.11-1.27-0.33
		c-0.27-0.22-0.41-0.58-0.41-1.07V468.61z"/>
	<path class="st5" d="M890.37,471.85l-0.16-2.46l11.78-1.6c-0.1-1.43-0.6-2.61-1.48-3.53c-0.88-0.92-2.11-1.39-3.67-1.39
		c-1.61,0-2.95,0.58-4,1.74c-1.05,1.16-1.58,2.81-1.58,4.97v0.86c0.18,2.08,0.86,3.66,2.05,4.74c1.18,1.08,2.8,1.62,4.86,1.62
		c1.09,0,2.08-0.18,2.96-0.55c0.88-0.36,1.59-0.75,2.11-1.17c0.29,0.18,0.51,0.4,0.68,0.64c0.17,0.25,0.25,0.53,0.25,0.84
		c0,0.49-0.28,0.96-0.84,1.38c-0.56,0.43-1.3,0.77-2.22,1.03c-0.92,0.26-1.96,0.39-3.1,0.39c-2,0-3.74-0.36-5.21-1.09
		c-1.47-0.73-2.6-1.81-3.39-3.26c-0.79-1.44-1.19-3.2-1.19-5.29c0-1.48,0.21-2.8,0.64-3.96c0.43-1.16,1.03-2.14,1.79-2.95
		c0.77-0.81,1.68-1.42,2.75-1.85c1.07-0.43,2.22-0.64,3.47-0.64c1.59,0,2.98,0.34,4.19,1.01c1.21,0.68,2.16,1.62,2.85,2.83
		c0.69,1.21,1.03,2.59,1.03,4.15c0,0.57-0.13,0.98-0.39,1.23c-0.26,0.25-0.63,0.4-1.09,0.45L890.37,471.85z"/>
	<path class="st5" d="M909.21,455.16c0-0.55,0.2-1.01,0.58-1.38c0.39-0.38,0.87-0.57,1.44-0.57c0.6,0,1.08,0.19,1.44,0.57
		c0.36,0.38,0.55,0.84,0.55,1.38c0,0.55-0.18,1.01-0.55,1.39c-0.36,0.38-0.85,0.57-1.44,0.57c-0.57,0-1.05-0.19-1.44-0.57
		C909.4,456.16,909.21,455.7,909.21,455.16z M912.8,470.1h-3.12v-9.17c0.13-0.05,0.33-0.11,0.6-0.18c0.27-0.07,0.57-0.1,0.88-0.1
		c0.55,0,0.96,0.11,1.23,0.33c0.27,0.22,0.41,0.59,0.41,1.11V470.1z M909.68,468.58h3.12v10.22c-0.13,0.05-0.33,0.11-0.59,0.18
		c-0.26,0.06-0.55,0.1-0.86,0.1c-0.55,0-0.96-0.11-1.25-0.33c-0.29-0.22-0.43-0.58-0.43-1.07V468.58z"/>
	<path class="st5" d="M931.17,475.79v-13.11l3.12-0.04v13.26c0,0.49-0.11,0.89-0.33,1.19c-0.22,0.3-0.57,0.59-1.03,0.88
		c-0.52,0.34-1.26,0.66-2.22,0.95c-0.96,0.3-2.07,0.45-3.32,0.45c-1.87,0-3.53-0.33-4.96-0.98c-1.43-0.65-2.55-1.67-3.35-3.06
		c-0.81-1.39-1.21-3.19-1.21-5.4c0-2.26,0.4-4.1,1.19-5.5c0.79-1.4,1.87-2.44,3.22-3.1c1.35-0.66,2.83-1,4.45-1
		c1.01,0,1.98,0.14,2.89,0.43c0.91,0.29,1.63,0.64,2.15,1.05v2.89c-0.49-0.49-1.14-0.92-1.93-1.27c-0.79-0.35-1.72-0.53-2.79-0.53
		c-1.07,0-2.05,0.23-2.97,0.68c-0.91,0.45-1.64,1.2-2.18,2.24c-0.55,1.04-0.82,2.43-0.82,4.17c0,2.37,0.57,4.09,1.72,5.17
		c1.14,1.08,2.67,1.62,4.56,1.62c0.91,0,1.66-0.1,2.24-0.29C930.18,476.32,930.7,476.08,931.17,475.79z M934.29,463.43l-3.12,0.04
		v-9.87c0.13-0.05,0.33-0.11,0.6-0.18c0.27-0.06,0.55-0.1,0.84-0.1c0.57,0,0.99,0.11,1.27,0.33c0.27,0.22,0.41,0.58,0.41,1.07
		V463.43z"/>
	<path class="st5" d="M941.36,471.85l-0.16-2.46l11.78-1.6c-0.1-1.43-0.6-2.61-1.48-3.53c-0.88-0.92-2.11-1.39-3.67-1.39
		c-1.61,0-2.95,0.58-4,1.74c-1.05,1.16-1.58,2.81-1.58,4.97v0.86c0.18,2.08,0.86,3.66,2.05,4.74c1.18,1.08,2.8,1.62,4.86,1.62
		c1.09,0,2.08-0.18,2.97-0.55c0.88-0.36,1.59-0.75,2.11-1.17c0.29,0.18,0.51,0.4,0.68,0.64c0.17,0.25,0.25,0.53,0.25,0.84
		c0,0.49-0.28,0.96-0.84,1.38c-0.56,0.43-1.3,0.77-2.22,1.03c-0.92,0.26-1.96,0.39-3.1,0.39c-2,0-3.74-0.36-5.21-1.09
		c-1.47-0.73-2.6-1.81-3.39-3.26c-0.79-1.44-1.19-3.2-1.19-5.29c0-1.48,0.22-2.8,0.64-3.96c0.43-1.16,1.03-2.14,1.79-2.95
		s1.68-1.42,2.75-1.85c1.07-0.43,2.22-0.64,3.47-0.64c1.59,0,2.98,0.34,4.19,1.01c1.21,0.68,2.16,1.62,2.85,2.83
		c0.69,1.21,1.03,2.59,1.03,4.15c0,0.57-0.13,0.98-0.39,1.23c-0.26,0.25-0.62,0.4-1.09,0.45L941.36,471.85z"/>
	<path class="st5" d="M958.17,477.24c0-0.62,0.19-1.14,0.57-1.56c0.38-0.42,0.9-0.62,1.58-0.62c0.68,0,1.2,0.21,1.56,0.62
		c0.36,0.42,0.55,0.94,0.55,1.56c0,0.6-0.18,1.11-0.55,1.52c-0.36,0.42-0.88,0.62-1.56,0.62c-0.68,0-1.2-0.21-1.58-0.62
		C958.36,478.34,958.17,477.84,958.17,477.24z"/>
</g>
<g>
</g>
<g>
</g>
<g>
</g>
<g>
</g>
<g>
</g>
<g>
</g>
<g>
</g>
<g>
</g>
<g>
</g>
<g>
</g>
<g>
</g>
<g>
</g>
<g>
</g>
<g>
</g>
<g>
</g>
</svg>
